999
FreeCAD v0.21 33771 (Git)
  0
SECTION
  2
HEADER
  9
$ACADVER
  1
AC1014
  9
$ACADMAINTVER
 70
     9
  9
$DWGCODEPAGE
  3
ANSI_1252
  9
$TEXTSTYLE
  7
STANDARD
  9
$DIMSTYLE
  2
STANDARD
  9
$DIMTXSTY
  7
STANDARD
  9
$CMLSTYLE
  2
STANDARD
  9
$LUNITS
 70
2
  9
$INSUNITS
 70
4
  9
$PEXTMAX
 10
50
 20
50
 30
50
  9
$PEXTMIN
 10
0
 20
0
 30
0
  9
$HANDSEED
  5
FFFF
  0
ENDSEC
  0
SECTION
  2
CLASSES
  0
CLASS
  1
ACDBDICTIONARYWDFLT
  2
AcDbDictionaryWithDefault
  3
ObjectDBX Classes
 90
        0
280
     0
281
     0
  0
CLASS
  1
XRECORD
  2
AcDbXrecord
  3
ObjectDBX Classes
 90
        0
280
     0
281
     0
  0
CLASS
  1
LWPOLYLINE
  2
AcDbPolyline
  3
ObjectDBX Classes
 90
        0
280
     0
281
     1
  0
ENDSEC
  0
SECTION
  2
TABLES
  0
TABLE
  2
VPORT
  5
20
330
0
100
AcDbSymbolTable
 70
     1
  0
VPORT
  5
21
330
20
100
AcDbSymbolTableRecord
100
AcDbViewportTableRecord
  2
*ACTIVE
 70
     0
  0
ENDTAB
  0
TABLE
  2
LTYPE
  5
22
330
0
100
AcDbSymbolTable
 70
     1
  0
LTYPE
  5
23
330
21
100
AcDbSymbolTableRecord
100
AcDbLinetypeTableRecord
  2
BYBLOCK
 70
     0
  3

 72
    65
 73
     0
 40
0.0
  0
LTYPE
  5
24
330
21
100
AcDbSymbolTableRecord
100
AcDbLinetypeTableRecord
  2
BYLAYER
 70
     0
  3

 72
    65
 73
     0
 40
0.0
  0
LTYPE
  5
25
330
21
100
AcDbSymbolTableRecord
100
AcDbLinetypeTableRecord
  2
CONTINUOUS
 70
     0
  3
Solid line
 72
    65
 73
     0
 40
0.0
  0
ENDTAB
  0
TABLE
  2
LAYER
  5
A5F
330
0
100
AcDbSymbolTable
 70
2
  0
LAYER
  5
A60
330
A5F
100
AcDbSymbolTableRecord
100
AcDbLayerTableRecord
  2
0
 70
   0
 62
   7
  6
CONTINUOUS
  0
LAYER
  5
A61
330
A5F
100
AcDbSymbolTableRecord
100
AcDbLayerTableRecord
  2
View
 70
    0
 62
    7
  6
CONTINUOUS
  0
ENDTAB
  0
TABLE
  2
STYLE
  5
70
330
0
100
AcDbSymbolTable
 70
     2
  0
STYLE
  5
71
330
70
100
AcDbSymbolTableRecord
100
AcDbTextStyleTableRecord
  2
STANDARD
 70
     0
 40
0.0
 41
1.0
 50
0.0
 71
     0
 42
2.5
  3
arial.ttf
  4

  0
STYLE
  5
72
330
70
100
AcDbSymbolTableRecord
100
AcDbTextStyleTableRecord
  2
ANNOTATIVE
 70
     0
 40
0.0
 41
1.0
 50
0.0
 71
     0
 42
2.5
  3
arial.ttf
  4

  0
ENDTAB
  0
TABLE
  2
VIEW
  5
73
330
0
100
AcDbSymbolTable
 70
     0
  0
ENDTAB
  0
TABLE
  2
UCS
  5
74
330
0
100
AcDbSymbolTable
 70
     0
  0
ENDTAB
  0
TABLE
  2
APPID
  5
75
330
0
100
AcDbSymbolTable
 70
     2
  0
APPID
  5
76
330
75
100
AcDbSymbolTableRecord
100
AcDbRegAppTableRecord
  2
ACAD
 70
     0
  0
APPID
  5
77
330
75
100
AcDbSymbolTableRecord
100
AcDbRegAppTableRecord
  2
ACADANNOTATIVE
 70
     0
  0
ENDTAB
  0
TABLE
  2
DIMSTYLE
  5
78
330
0
100
AcDbSymbolTable
 70
     2
  0
DIMSTYLE
105
79
330
78
100
AcDbSymbolTableRecord
100
AcDbDimStyleTableRecord
  2
STANDARD
 70
     0
  3

  4

  5

  6

  7

 40
0.0
 41
2.5
 42
0.625
 43
3.75
 44
1.25
 45
0.0
 46
0.0
 47
0.0
 48
0.0
140
2.5
141
2.5
142
0.0
143
0.03937007874016
144
1.0
145
0.0
146
1.0
147
0.625
 71
     0
 72
     0
 73
     0
 74
     0
 75
     0
 76
     0
 77
     1
 78
     8
170
     0
171
     3
172
     1
173
     0
174
     0
175
     0
176
     0
177
     0
178
     0
270
     2
271
     2
272
     2
273
     2
274
     3
340
71
275
     0
280
     0
281
     0
282
     0
283
     0
284
     8
285
     0
286
     0
287
     3
288
     0
  0
ENDTAB
  0
TABLE
  2
BLOCK_RECORD
  5
A01
330
0
100
AcDbSymbolTable
  70
5
  0
BLOCK_RECORD
  5
A02
330
A01
100
AcDbSymbolTableRecord
100
AcDbBlockTableRecord
  2
*MODEL_SPACE
  0
BLOCK_RECORD
  5
A03
330
A01
100
AcDbSymbolTableRecord
100
AcDbBlockTableRecord
  2
*PAPER_SPACE
  0
ENDTAB
  0
ENDSEC
  0
SECTION
  2
BLOCKS
  0
BLOCK
  5
A04
330
A02
100
AcDbEntity
  8
0
100
AcDbBlockBegin
  2
*MODEL_SPACE
 70
   0
 10
0
 20
0
 30
0
  3
*MODEL_SPACE
  1
 
  0
ENDBLK
  5
A05
330
A02
100
AcDbEntity
  8
0
100
AcDbBlockEnd
  0
BLOCK
  5
A06
330
A03
100
AcDbEntity
 67
1
  8
0
100
AcDbBlockBegin
  2
*PAPER_SPACE
 70
   0
 10
0
 20
0
 30
0
  3
*PAPER_SPACE
  1
 
  0
ENDBLK
  5
A07
330
A03
100
AcDbEntity
 67
    1
  8
0
100
AcDbBlockEnd
  0
ENDSEC
  0
SECTION
  2
ENTITIES
  0
LINE
  5
A08
330
A02
100
AcDbEntity
  8
View
100
AcDbLine
 10
199.642
 20
187.712
 30
0
 11
99.373
 21
187.713
 31
0
  0
ARC
  5
A09
330
A02
100
AcDbEntity
  8
View
100
AcDbCircle
 10
99.373
 20
181.478
 30
0
 40
6.234
100
AcDbArc
 50
90
 51
155.7
  0
LINE
  5
A0A
330
A02
100
AcDbEntity
  8
View
100
AcDbLine
 10
93.6913
 20
184.044
 30
0
 11
66.3442
 21
117.55
 31
0
  0
CIRCLE
  5
A0B
330
A02
100
AcDbEntity
  8
View
100
AcDbCircle
 10
77.937
 20
120.15
 40
3.45
  0
CIRCLE
  5
A0C
330
A02
100
AcDbEntity
  8
View
100
AcDbCircle
 10
94.937
 20
122.65
 40
2.2
  0
CIRCLE
  5
A0D
330
A02
100
AcDbEntity
  8
View
100
AcDbCircle
 10
113.155
 20
127.544
 40
2.2
  0
CIRCLE
  5
A0E
330
A02
100
AcDbEntity
  8
View
100
AcDbCircle
 10
99.937
 20
145.65
 40
13
  0
CIRCLE
  5
A0F
330
A02
100
AcDbEntity
  8
View
100
AcDbCircle
 10
186.815
 20
127.544
 40
2.2
  0
CIRCLE
  5
A10
330
A02
100
AcDbEntity
  8
View
100
AcDbCircle
 10
204.937
 20
122.65
 40
2.2
  0
CIRCLE
  5
A11
330
A02
100
AcDbEntity
  8
View
100
AcDbCircle
 10
221.937
 20
120.15
 40
3.45
  0
CIRCLE
  5
A12
330
A02
100
AcDbEntity
  8
View
100
AcDbCircle
 10
199.937
 20
145.65
 40
13
  0
CIRCLE
  5
A13
330
A02
100
AcDbEntity
  8
View
100
AcDbCircle
 10
109.937
 20
168.952
 40
3.2
  0
CIRCLE
  5
A14
330
A02
100
AcDbEntity
  8
View
100
AcDbCircle
 10
100.437
 20
180.65
 40
3.45
  0
CIRCLE
  5
A15
330
A02
100
AcDbEntity
  8
View
100
AcDbCircle
 10
127.937
 20
167.65
 40
3.6
  0
CIRCLE
  5
A16
330
A02
100
AcDbEntity
  8
View
100
AcDbCircle
 10
171.937
 20
167.65
 40
3.6
  0
CIRCLE
  5
A17
330
A02
100
AcDbEntity
  8
View
100
AcDbCircle
 10
189.937
 20
168.952
 40
3.2
  0
CIRCLE
  5
A18
330
A02
100
AcDbEntity
  8
View
100
AcDbCircle
 10
198.437
 20
180.65
 40
3.45
  0
LINE
  5
A19
330
A02
100
AcDbEntity
  8
View
100
AcDbLine
 10
233.526
 20
117.586
 30
0
 11
205.04
 21
184.226
 31
0
  0
LINE
  5
A1A
330
A02
100
AcDbEntity
  8
View
100
AcDbLine
 10
70.181
 20
112.317
 30
0
 11
111.98
 21
112.287
 31
0
  0
LINE
  5
A1B
330
A02
100
AcDbEntity
  8
View
100
AcDbLine
 10
188.362
 20
112.322
 30
0
 11
230.096
 21
112.334
 31
0
  0
LINE
  5
A1C
330
A02
100
AcDbEntity
  8
View
100
AcDbLine
 10
117.312
 20
114.265
 30
0
 11
128.998
 21
125.863
 31
0
  0
LINE
  5
A1D
330
A02
100
AcDbEntity
  8
View
100
AcDbLine
 10
170.904
 20
125.892
 30
0
 11
182.656
 21
114.304
 31
0
  0
LINE
  5
A1E
330
A02
100
AcDbEntity
  8
View
100
AcDbLine
 10
165.09
 20
127.876
 30
0
 11
134.704
 21
127.844
 31
0
  0
CIRCLE
  5
A1F
330
A02
100
AcDbEntity
  8
View
100
AcDbCircle
 10
77.937
 20
120.15
 40
1.7
  0
CIRCLE
  5
A20
330
A02
100
AcDbEntity
  8
View
100
AcDbCircle
 10
221.937
 20
120.15
 40
1.7
  0
CIRCLE
  5
A21
330
A02
100
AcDbEntity
  8
View
100
AcDbCircle
 10
100.437
 20
180.65
 40
1.7
  0
CIRCLE
  5
A22
330
A02
100
AcDbEntity
  8
View
100
AcDbCircle
 10
198.437
 20
180.65
 40
1.7
  0
ARC
  5
A23
330
A02
100
AcDbEntity
  8
View
100
AcDbCircle
 10
199.642
 20
181.788
 30
0
 40
5.923
100
AcDbArc
 50
24.3
 51
90
  0
ARC
  5
A24
330
A02
100
AcDbEntity
  8
View
100
AcDbCircle
 10
188.362
 20
121.529
 30
0
 40
9.206
100
AcDbArc
 50
-128.3
 51
-90
  0
SPLINE
  5
A25
330
A02
100
AcDbEntity
  8
View
100
AcDbSpline
210
0
220
0
230
1
 70
8
 71
3
 72
11
 73
7
 74
0
 40
0
 40
0
 40
0
 40
0
 40
0.471928
 40
0.471928
 40
0.471928
 40
1
 40
1
 40
1
 40
1
 10
170.904
 20
125.892
 30
0
 10
170.903
 20
125.891
 30
0
 10
170.967
 20
125.964
 30
0
 10
171.077
 20
126.09
 30
0
 10
171.2
 20
126.23
 30
0
 10
171.381
 20
126.437
 30
0
 10
171.564
 20
126.645
 30
0
  0
ARC
  5
A26
330
A02
100
AcDbEntity
  8
View
100
AcDbCircle
 10
165.09
 20
118.37
 30
0
 40
9.507
100
AcDbArc
 50
52.3
 51
90
  0
ARC
  5
A27
330
A02
100
AcDbEntity
  8
View
100
AcDbCircle
 10
230.096
 20
116.081
 30
0
 40
3.746
100
AcDbArc
 50
-90
 51
23.7
  0
ARC
  5
A28
330
A02
100
AcDbEntity
  8
View
100
AcDbCircle
 10
134.704
 20
118.638
 30
0
 40
9.206
100
AcDbArc
 50
90
 51
128.3
  0
SPLINE
  5
A29
330
A02
100
AcDbEntity
  8
View
100
AcDbSpline
210
0
220
0
230
1
 70
8
 71
3
 72
11
 73
7
 74
0
 40
0
 40
0
 40
0
 40
0
 40
0.471477
 40
0.471477
 40
0.471477
 40
1
 40
1
 40
1
 40
1
 10
128.998
 20
125.863
 30
0
 10
128.999
 20
125.863
 30
0
 10
128.935
 20
125.934
 30
0
 10
128.824
 20
126.06
 30
0
 10
128.7
 20
126.199
 30
0
 10
128.518
 20
126.405
 30
0
 10
128.333
 20
126.612
 30
0
  0
ARC
  5
A2A
330
A02
100
AcDbEntity
  8
View
100
AcDbCircle
 10
111.98
 20
120.463
 30
0
 40
8.176
100
AcDbArc
 50
-90
 51
-49.3
  0
ARC
  5
A2B
330
A02
100
AcDbEntity
  8
View
100
AcDbCircle
 10
70.181
 20
116.34
 30
0
 40
4.023
100
AcDbArc
 50
162.5
 51
-90
  0
CIRCLE
  5
A2C
330
A02
100
AcDbEntity
  8
View
100
AcDbCircle
 10
77.937
 20
120.15
 40
3.4
  0
CIRCLE
  5
A2D
330
A02
100
AcDbEntity
  8
View
100
AcDbCircle
 10
221.937
 20
120.15
 40
3.4
  0
CIRCLE
  5
A2E
330
A02
100
AcDbEntity
  8
View
100
AcDbCircle
 10
100.437
 20
180.65
 40
3.4
  0
CIRCLE
  5
A2F
330
A02
100
AcDbEntity
  8
View
100
AcDbCircle
 10
198.437
 20
180.65
 40
3.4
  0
ARC
  5
A30
330
A02
100
AcDbEntity
  8
View
100
AcDbCircle
 10
99.373
 20
181.478
 30
0
 40
6.234
100
AcDbArc
 50
90
 51
155.7
  0
SPLINE
  5
A31
330
A02
100
AcDbEntity
  8
View
100
AcDbSpline
210
0
220
0
230
1
 70
8
 71
3
 72
35
 73
31
 74
0
 40
0
 40
0
 40
0
 40
0
 40
0.1122
 40
0.1122
 40
0.1122
 40
0.224399
 40
0.224399
 40
0.224399
 40
0.336599
 40
0.336599
 40
0.336599
 40
0.448799
 40
0.448799
 40
0.448799
 40
0.560999
 40
0.560999
 40
0.560999
 40
0.673198
 40
0.673198
 40
0.673198
 40
0.785398
 40
0.785398
 40
0.785398
 40
0.897598
 40
0.897598
 40
0.897598
 40
1.122
 40
1.122
 40
1.122
 40
1.5708
 40
1.5708
 40
1.5708
 40
1.5708
 10
99.373
 20
187.713
 30
0
 10
99.373
 20
187.71
 30
0
 10
99.373
 20
187.708
 30
0
 10
99.373
 20
187.706
 30
0
 10
99.373
 20
187.7
 30
0
 10
99.373
 20
187.694
 30
0
 10
99.373
 20
187.687
 30
0
 10
99.373
 20
187.677
 30
0
 10
99.373
 20
187.667
 30
0
 10
99.373
 20
187.656
 30
0
 10
99.373
 20
187.642
 30
0
 10
99.373
 20
187.628
 30
0
 10
99.373
 20
187.613
 30
0
 10
99.373
 20
187.595
 30
0
 10
99.373
 20
187.577
 30
0
 10
99.373
 20
187.559
 30
0
 10
99.373
 20
187.538
 30
0
 10
99.373
 20
187.516
 30
0
 10
99.373
 20
187.494
 30
0
 10
99.373
 20
187.469
 30
0
 10
99.373
 20
187.445
 30
0
 10
99.373
 20
187.42
 30
0
 10
99.373
 20
187.392
 30
0
 10
99.373
 20
187.364
 30
0
 10
99.373
 20
187.336
 30
0
 10
99.373
 20
187.276
 30
0
 10
99.373
 20
187.213
 30
0
 10
99.373
 20
187.146
 30
0
 10
99.373
 20
187.011
 30
0
 10
99.373
 20
186.862
 30
0
 10
99.373
 20
186.713
 30
0
  0
ARC
  5
A32
330
A02
100
AcDbEntity
  8
View
100
AcDbCircle
 10
99.373
 20
181.478
 30
0
 40
5.234
100
AcDbArc
 50
90
 51
155.7
  0
SPLINE
  5
A33
330
A02
100
AcDbEntity
  8
View
100
AcDbSpline
210
0
220
0
230
1
 70
8
 71
3
 72
35
 73
31
 74
0
 40
0
 40
0
 40
0
 40
0
 40
0.1122
 40
0.1122
 40
0.1122
 40
0.224399
 40
0.224399
 40
0.224399
 40
0.336599
 40
0.336599
 40
0.336599
 40
0.448799
 40
0.448799
 40
0.448799
 40
0.560999
 40
0.560999
 40
0.560999
 40
0.673198
 40
0.673198
 40
0.673198
 40
0.785398
 40
0.785398
 40
0.785398
 40
0.897598
 40
0.897598
 40
0.897598
 40
1.122
 40
1.122
 40
1.122
 40
1.5708
 40
1.5708
 40
1.5708
 40
1.5708
 10
93.6913
 20
184.044
 30
0
 10
93.6932
 20
184.043
 30
0
 10
93.6951
 20
184.042
 30
0
 10
93.697
 20
184.041
 30
0
 10
93.7027
 20
184.039
 30
0
 10
93.7085
 20
184.036
 30
0
 10
93.7142
 20
184.034
 30
0
 10
93.7236
 20
184.029
 30
0
 10
93.733
 20
184.025
 30
0
 10
93.7425
 20
184.021
 30
0
 10
93.7555
 20
184.015
 30
0
 10
93.7685
 20
184.009
 30
0
 10
93.7816
 20
184.003
 30
0
 10
93.798
 20
183.996
 30
0
 10
93.8145
 20
183.988
 30
0
 10
93.831
 20
183.981
 30
0
 10
93.8507
 20
183.972
 30
0
 10
93.8704
 20
183.963
 30
0
 10
93.8902
 20
183.954
 30
0
 10
93.9129
 20
183.944
 30
0
 10
93.9356
 20
183.934
 30
0
 10
93.9583
 20
183.923
 30
0
 10
93.9837
 20
183.912
 30
0
 10
94.0091
 20
183.9
 30
0
 10
94.0345
 20
183.889
 30
0
 10
94.0889
 20
183.864
 30
0
 10
94.1465
 20
183.838
 30
0
 10
94.2073
 20
183.811
 30
0
 10
94.331
 20
183.755
 30
0
 10
94.4662
 20
183.694
 30
0
 10
94.6027
 20
183.632
 30
0
  0
SPLINE
  5
A34
330
A02
100
AcDbEntity
  8
View
100
AcDbSpline
210
0
220
0
230
1
 70
8
 71
3
 72
35
 73
31
 74
0
 40
0
 40
0
 40
0
 40
0
 40
0.1122
 40
0.1122
 40
0.1122
 40
0.224399
 40
0.224399
 40
0.224399
 40
0.336599
 40
0.336599
 40
0.336599
 40
0.448799
 40
0.448799
 40
0.448799
 40
0.560999
 40
0.560999
 40
0.560999
 40
0.673198
 40
0.673198
 40
0.673198
 40
0.785398
 40
0.785398
 40
0.785398
 40
0.897598
 40
0.897598
 40
0.897598
 40
1.122
 40
1.122
 40
1.122
 40
1.5708
 40
1.5708
 40
1.5708
 40
1.5708
 10
199.642
 20
187.712
 30
0
 10
199.642
 20
187.709
 30
0
 10
199.642
 20
187.707
 30
0
 10
199.642
 20
187.705
 30
0
 10
199.642
 20
187.699
 30
0
 10
199.642
 20
187.693
 30
0
 10
199.642
 20
187.686
 30
0
 10
199.642
 20
187.676
 30
0
 10
199.642
 20
187.666
 30
0
 10
199.642
 20
187.655
 30
0
 10
199.642
 20
187.641
 30
0
 10
199.642
 20
187.627
 30
0
 10
199.642
 20
187.612
 30
0
 10
199.642
 20
187.594
 30
0
 10
199.642
 20
187.576
 30
0
 10
199.642
 20
187.558
 30
0
 10
199.642
 20
187.537
 30
0
 10
199.642
 20
187.515
 30
0
 10
199.642
 20
187.493
 30
0
 10
199.642
 20
187.468
 30
0
 10
199.642
 20
187.444
 30
0
 10
199.642
 20
187.419
 30
0
 10
199.642
 20
187.391
 30
0
 10
199.642
 20
187.363
 30
0
 10
199.642
 20
187.335
 30
0
 10
199.642
 20
187.275
 30
0
 10
199.642
 20
187.212
 30
0
 10
199.642
 20
187.145
 30
0
 10
199.642
 20
187.01
 30
0
 10
199.642
 20
186.861
 30
0
 10
199.642
 20
186.712
 30
0
  0
LINE
  5
A35
330
A02
100
AcDbEntity
  8
View
100
AcDbLine
 10
199.642
 20
186.712
 30
0
 11
99.373
 21
186.713
 31
0
  0
ARC
  5
A36
330
A02
100
AcDbEntity
  8
View
100
AcDbCircle
 10
199.642
 20
181.788
 30
0
 40
5.923
100
AcDbArc
 50
24.3
 51
90
  0
ARC
  5
A37
330
A02
100
AcDbEntity
  8
View
100
AcDbCircle
 10
188.362
 20
121.529
 30
0
 40
8.206
100
AcDbArc
 50
-127.927
 51
-90
  0
LINE
  5
A38
330
A02
100
AcDbEntity
  8
View
100
AcDbLine
 10
171.564
 20
126.645
 30
0
 11
183.318
 21
115.056
 31
0
  0
LINE
  5
A39
330
A02
100
AcDbEntity
  8
View
100
AcDbLine
 10
188.362
 20
113.322
 30
0
 11
230.096
 21
113.334
 31
0
  0
ARC
  5
A3A
330
A02
100
AcDbEntity
  8
View
100
AcDbCircle
 10
165.09
 20
118.37
 30
0
 40
10.507
100
AcDbArc
 50
51.9633
 51
90
  0
ARC
  5
A3B
330
A02
100
AcDbEntity
  8
View
100
AcDbCircle
 10
230.096
 20
116.081
 30
0
 40
2.746
100
AcDbArc
 50
-90
 51
23.7
  0
LINE
  5
A3C
330
A02
100
AcDbEntity
  8
View
100
AcDbLine
 10
165.089
 20
128.876
 30
0
 11
134.703
 21
128.844
 31
0
  0
LINE
  5
A3D
330
A02
100
AcDbEntity
  8
View
100
AcDbLine
 10
232.607
 20
117.193
 30
0
 11
204.121
 21
183.833
 31
0
  0
ARC
  5
A3E
330
A02
100
AcDbEntity
  8
View
100
AcDbCircle
 10
134.704
 20
118.638
 30
0
 40
10.206
100
AcDbArc
 50
90
 51
128.626
  0
ARC
  5
A3F
330
A02
100
AcDbEntity
  8
View
100
AcDbCircle
 10
199.642
 20
181.788
 30
0
 40
4.923
100
AcDbArc
 50
24.3
 51
90
  0
LINE
  5
A40
330
A02
100
AcDbEntity
  8
View
100
AcDbLine
 10
116.607
 20
114.975
 30
0
 11
128.333
 21
126.612
 31
0
  0
ARC
  5
A41
330
A02
100
AcDbEntity
  8
View
100
AcDbCircle
 10
111.98
 20
120.463
 30
0
 40
7.176
100
AcDbArc
 50
-90
 51
-49.3
  0
LINE
  5
A42
330
A02
100
AcDbEntity
  8
View
100
AcDbLine
 10
70.1817
 20
113.317
 30
0
 11
111.981
 21
113.287
 31
0
  0
LINE
  5
A43
330
A02
100
AcDbEntity
  8
View
100
AcDbLine
 10
94.6161
 20
183.664
 30
0
 11
67.269
 21
117.17
 31
0
  0
ARC
  5
A44
330
A02
100
AcDbEntity
  8
View
100
AcDbCircle
 10
70.181
 20
116.34
 30
0
 40
3.023
100
AcDbArc
 50
162.5
 51
-90
  0
SPLINE
  5
A45
330
A02
100
AcDbEntity
  8
View
100
AcDbSpline
210
0
220
0
230
1
 70
8
 71
3
 72
35
 73
31
 74
0
 40
0
 40
0
 40
0
 40
0
 40
0.1122
 40
0.1122
 40
0.1122
 40
0.224399
 40
0.224399
 40
0.224399
 40
0.336599
 40
0.336599
 40
0.336599
 40
0.448799
 40
0.448799
 40
0.448799
 40
0.560999
 40
0.560999
 40
0.560999
 40
0.673198
 40
0.673198
 40
0.673198
 40
0.785398
 40
0.785398
 40
0.785398
 40
0.897598
 40
0.897598
 40
0.897598
 40
1.122
 40
1.122
 40
1.122
 40
1.5708
 40
1.5708
 40
1.5708
 40
1.5708
 10
66.3442
 20
117.55
 30
0
 10
66.3461
 20
117.549
 30
0
 10
66.3481
 20
117.549
 30
0
 10
66.35
 20
117.548
 30
0
 10
66.3558
 20
117.545
 30
0
 10
66.3616
 20
117.543
 30
0
 10
66.3674
 20
117.541
 30
0
 10
66.377
 20
117.537
 30
0
 10
66.3865
 20
117.533
 30
0
 10
66.3961
 20
117.529
 30
0
 10
66.4093
 20
117.523
 30
0
 10
66.4226
 20
117.518
 30
0
 10
66.4358
 20
117.513
 30
0
 10
66.4525
 20
117.506
 30
0
 10
66.4692
 20
117.499
 30
0
 10
66.486
 20
117.492
 30
0
 10
66.506
 20
117.484
 30
0
 10
66.526
 20
117.475
 30
0
 10
66.546
 20
117.467
 30
0
 10
66.569
 20
117.458
 30
0
 10
66.592
 20
117.448
 30
0
 10
66.6151
 20
117.439
 30
0
 10
66.6409
 20
117.428
 30
0
 10
66.6666
 20
117.418
 30
0
 10
66.6924
 20
117.407
 30
0
 10
66.7476
 20
117.384
 30
0
 10
66.8061
 20
117.36
 30
0
 10
66.8678
 20
117.335
 30
0
 10
66.9933
 20
117.283
 30
0
 10
67.1305
 20
117.227
 30
0
 10
67.269
 20
117.17
 30
0
  0
ARC
  5
A46
330
A02
100
AcDbEntity
  8
View
100
AcDbCircle
 10
70.181
 20
116.34
 30
0
 40
4.023
100
AcDbArc
 50
162.5
 51
-90
  0
ARC
  5
A47
330
A02
100
AcDbEntity
  8
View
100
AcDbCircle
 10
230.096
 20
116.081
 30
0
 40
3.746
100
AcDbArc
 50
-90
 51
23.7
  0
ARC
  5
A48
330
A02
100
AcDbEntity
  8
View
100
AcDbCircle
 10
111.98
 20
120.463
 30
0
 40
8.176
100
AcDbArc
 50
-90
 51
-49.3
  0
ARC
  5
A49
330
A02
100
AcDbEntity
  8
View
100
AcDbCircle
 10
188.362
 20
121.529
 30
0
 40
9.206
100
AcDbArc
 50
-128.3
 51
-90
  0
ARC
  5
A4A
330
A02
100
AcDbEntity
  8
View
100
AcDbCircle
 10
134.704
 20
118.638
 30
0
 40
9.206
100
AcDbArc
 50
90
 51
128.3
  0
ARC
  5
A4B
330
A02
100
AcDbEntity
  8
View
100
AcDbCircle
 10
165.09
 20
118.37
 30
0
 40
9.507
100
AcDbArc
 50
52.3
 51
90
  0
SPLINE
  5
A4C
330
A02
100
AcDbEntity
  8
View
100
AcDbSpline
210
0
220
0
230
1
 70
8
 71
3
 72
35
 73
31
 74
0
 40
0
 40
0
 40
0
 40
0
 40
0.1122
 40
0.1122
 40
0.1122
 40
0.224399
 40
0.224399
 40
0.224399
 40
0.336599
 40
0.336599
 40
0.336599
 40
0.448799
 40
0.448799
 40
0.448799
 40
0.560999
 40
0.560999
 40
0.560999
 40
0.673198
 40
0.673198
 40
0.673198
 40
0.785398
 40
0.785398
 40
0.785398
 40
0.897598
 40
0.897598
 40
0.897598
 40
1.122
 40
1.122
 40
1.122
 40
1.5708
 40
1.5708
 40
1.5708
 40
1.5708
 10
205.04
 20
184.226
 30
0
 10
205.038
 20
184.225
 30
0
 10
205.036
 20
184.224
 30
0
 10
205.034
 20
184.223
 30
0
 10
205.029
 20
184.221
 30
0
 10
205.023
 20
184.219
 30
0
 10
205.017
 20
184.216
 30
0
 10
205.008
 20
184.212
 30
0
 10
204.998
 20
184.208
 30
0
 10
204.989
 20
184.204
 30
0
 10
204.975
 20
184.198
 30
0
 10
204.962
 20
184.193
 30
0
 10
204.949
 20
184.187
 30
0
 10
204.933
 20
184.18
 30
0
 10
204.916
 20
184.173
 30
0
 10
204.899
 20
184.166
 30
0
 10
204.879
 20
184.157
 30
0
 10
204.86
 20
184.149
 30
0
 10
204.84
 20
184.14
 30
0
 10
204.817
 20
184.13
 30
0
 10
204.794
 20
184.121
 30
0
 10
204.771
 20
184.111
 30
0
 10
204.745
 20
184.1
 30
0
 10
204.72
 20
184.089
 30
0
 10
204.694
 20
184.078
 30
0
 10
204.639
 20
184.054
 30
0
 10
204.581
 20
184.03
 30
0
 10
204.52
 20
184.003
 30
0
 10
204.395
 20
183.95
 30
0
 10
204.258
 20
183.892
 30
0
 10
204.121
 20
183.833
 30
0
  0
SPLINE
  5
A4D
330
A02
100
AcDbEntity
  8
View
100
AcDbSpline
210
0
220
0
230
1
 70
8
 71
3
 72
11
 73
7
 74
0
 40
0
 40
0
 40
0
 40
0
 40
0.785405
 40
0.785405
 40
0.785405
 40
1.57081
 40
1.57081
 40
1.57081
 40
1.57081
 10
182.656
 20
114.304
 30
0
 10
182.663
 20
114.297
 30
0
 10
182.738
 20
114.375
 30
0
 10
182.861
 20
114.516
 30
0
 10
182.982
 20
114.655
 30
0
 10
183.15
 20
114.854
 30
0
 10
183.318
 20
115.056
 30
0
  0
SPLINE
  5
A4E
330
A02
100
AcDbEntity
  8
View
100
AcDbSpline
210
0
220
0
230
1
 70
8
 71
3
 72
35
 73
31
 74
0
 40
0
 40
0
 40
0
 40
0
 40
0.1122
 40
0.1122
 40
0.1122
 40
0.224399
 40
0.224399
 40
0.224399
 40
0.336599
 40
0.336599
 40
0.336599
 40
0.448799
 40
0.448799
 40
0.448799
 40
0.560999
 40
0.560999
 40
0.560999
 40
0.673198
 40
0.673198
 40
0.673198
 40
0.785398
 40
0.785398
 40
0.785398
 40
0.897598
 40
0.897598
 40
0.897598
 40
1.122
 40
1.122
 40
1.122
 40
1.5708
 40
1.5708
 40
1.5708
 40
1.5708
 10
188.362
 20
112.322
 30
0
 10
188.362
 20
112.325
 30
0
 10
188.362
 20
112.327
 30
0
 10
188.362
 20
112.329
 30
0
 10
188.362
 20
112.335
 30
0
 10
188.362
 20
112.341
 30
0
 10
188.362
 20
112.348
 30
0
 10
188.362
 20
112.358
 30
0
 10
188.362
 20
112.368
 30
0
 10
188.362
 20
112.379
 30
0
 10
188.362
 20
112.393
 30
0
 10
188.362
 20
112.407
 30
0
 10
188.362
 20
112.422
 30
0
 10
188.362
 20
112.44
 30
0
 10
188.362
 20
112.458
 30
0
 10
188.362
 20
112.476
 30
0
 10
188.362
 20
112.497
 30
0
 10
188.362
 20
112.519
 30
0
 10
188.362
 20
112.541
 30
0
 10
188.362
 20
112.566
 30
0
 10
188.362
 20
112.59
 30
0
 10
188.362
 20
112.615
 30
0
 10
188.362
 20
112.643
 30
0
 10
188.362
 20
112.671
 30
0
 10
188.362
 20
112.699
 30
0
 10
188.362
 20
112.759
 30
0
 10
188.362
 20
112.822
 30
0
 10
188.362
 20
112.889
 30
0
 10
188.362
 20
113.024
 30
0
 10
188.362
 20
113.173
 30
0
 10
188.362
 20
113.322
 30
0
  0
SPLINE
  5
A4F
330
A02
100
AcDbEntity
  8
View
100
AcDbSpline
210
0
220
0
230
1
 70
8
 71
3
 72
11
 73
7
 74
0
 40
0
 40
0
 40
0
 40
0
 40
0.785908
 40
0.785908
 40
0.785908
 40
1.57182
 40
1.57182
 40
1.57182
 40
1.57182
 10
183.318
 20
115.056
 30
0
 10
183.141
 20
114.862
 30
0
 10
182.965
 20
114.67
 30
0
 10
182.842
 20
114.532
 30
0
 10
182.718
 20
114.393
 30
0
 10
182.649
 20
114.31
 30
0
 10
182.656
 20
114.304
 30
0
  0
SPLINE
  5
A50
330
A02
100
AcDbEntity
  8
View
100
AcDbSpline
210
0
220
0
230
1
 70
8
 71
3
 72
35
 73
31
 74
0
 40
0
 40
0
 40
0
 40
0
 40
0.1122
 40
0.1122
 40
0.1122
 40
0.224399
 40
0.224399
 40
0.224399
 40
0.336599
 40
0.336599
 40
0.336599
 40
0.448799
 40
0.448799
 40
0.448799
 40
0.560999
 40
0.560999
 40
0.560999
 40
0.673198
 40
0.673198
 40
0.673198
 40
0.785398
 40
0.785398
 40
0.785398
 40
0.897598
 40
0.897598
 40
0.897598
 40
1.122
 40
1.122
 40
1.122
 40
1.5708
 40
1.5708
 40
1.5708
 40
1.5708
 10
230.096
 20
112.334
 30
0
 10
230.096
 20
112.337
 30
0
 10
230.096
 20
112.339
 30
0
 10
230.096
 20
112.341
 30
0
 10
230.096
 20
112.347
 30
0
 10
230.096
 20
112.353
 30
0
 10
230.096
 20
112.36
 30
0
 10
230.096
 20
112.37
 30
0
 10
230.096
 20
112.38
 30
0
 10
230.096
 20
112.391
 30
0
 10
230.096
 20
112.405
 30
0
 10
230.096
 20
112.419
 30
0
 10
230.096
 20
112.434
 30
0
 10
230.096
 20
112.452
 30
0
 10
230.096
 20
112.47
 30
0
 10
230.096
 20
112.488
 30
0
 10
230.096
 20
112.509
 30
0
 10
230.096
 20
112.531
 30
0
 10
230.096
 20
112.553
 30
0
 10
230.096
 20
112.578
 30
0
 10
230.096
 20
112.602
 30
0
 10
230.096
 20
112.627
 30
0
 10
230.096
 20
112.655
 30
0
 10
230.096
 20
112.683
 30
0
 10
230.096
 20
112.711
 30
0
 10
230.096
 20
112.771
 30
0
 10
230.096
 20
112.834
 30
0
 10
230.096
 20
112.901
 30
0
 10
230.096
 20
113.036
 30
0
 10
230.096
 20
113.185
 30
0
 10
230.096
 20
113.334
 30
0
  0
SPLINE
  5
A51
330
A02
100
AcDbEntity
  8
View
100
AcDbSpline
210
0
220
0
230
1
 70
8
 71
3
 72
35
 73
31
 74
0
 40
3.14159
 40
3.14159
 40
3.14159
 40
3.14159
 40
3.25379
 40
3.25379
 40
3.25379
 40
3.36599
 40
3.36599
 40
3.36599
 40
3.47819
 40
3.47819
 40
3.47819
 40
3.59039
 40
3.59039
 40
3.59039
 40
3.70259
 40
3.70259
 40
3.70259
 40
3.81479
 40
3.81479
 40
3.81479
 40
3.92699
 40
3.92699
 40
3.92699
 40
4.03919
 40
4.03919
 40
4.03919
 40
4.26359
 40
4.26359
 40
4.26359
 40
4.71239
 40
4.71239
 40
4.71239
 40
4.71239
 10
165.09
 20
127.876
 30
0
 10
165.09
 20
127.879
 30
0
 10
165.09
 20
127.881
 30
0
 10
165.09
 20
127.883
 30
0
 10
165.09
 20
127.889
 30
0
 10
165.09
 20
127.895
 30
0
 10
165.09
 20
127.902
 30
0
 10
165.09
 20
127.912
 30
0
 10
165.09
 20
127.922
 30
0
 10
165.09
 20
127.933
 30
0
 10
165.09
 20
127.947
 30
0
 10
165.09
 20
127.961
 30
0
 10
165.09
 20
127.976
 30
0
 10
165.09
 20
127.994
 30
0
 10
165.09
 20
128.012
 30
0
 10
165.09
 20
128.03
 30
0
 10
165.09
 20
128.051
 30
0
 10
165.09
 20
128.073
 30
0
 10
165.09
 20
128.095
 30
0
 10
165.09
 20
128.12
 30
0
 10
165.09
 20
128.144
 30
0
 10
165.09
 20
128.169
 30
0
 10
165.09
 20
128.197
 30
0
 10
165.09
 20
128.225
 30
0
 10
165.09
 20
128.253
 30
0
 10
165.09
 20
128.313
 30
0
 10
165.09
 20
128.376
 30
0
 10
165.09
 20
128.443
 30
0
 10
165.09
 20
128.578
 30
0
 10
165.09
 20
128.727
 30
0
 10
165.09
 20
128.876
 30
0
  0
SPLINE
  5
A52
330
A02
100
AcDbEntity
  8
View
100
AcDbSpline
210
0
220
0
230
1
 70
8
 71
3
 72
35
 73
31
 74
0
 40
0
 40
0
 40
0
 40
0
 40
0.1122
 40
0.1122
 40
0.1122
 40
0.224399
 40
0.224399
 40
0.224399
 40
0.336599
 40
0.336599
 40
0.336599
 40
0.448799
 40
0.448799
 40
0.448799
 40
0.560999
 40
0.560999
 40
0.560999
 40
0.673198
 40
0.673198
 40
0.673198
 40
0.785398
 40
0.785398
 40
0.785398
 40
0.897598
 40
0.897598
 40
0.897598
 40
1.122
 40
1.122
 40
1.122
 40
1.5708
 40
1.5708
 40
1.5708
 40
1.5708
 10
233.526
 20
117.586
 30
0
 10
233.524
 20
117.585
 30
0
 10
233.522
 20
117.585
 30
0
 10
233.52
 20
117.584
 30
0
 10
233.515
 20
117.581
 30
0
 10
233.509
 20
117.579
 30
0
 10
233.503
 20
117.576
 30
0
 10
233.494
 20
117.572
 30
0
 10
233.484
 20
117.568
 30
0
 10
233.475
 20
117.564
 30
0
 10
233.462
 20
117.558
 30
0
 10
233.448
 20
117.552
 30
0
 10
233.435
 20
117.546
 30
0
 10
233.419
 20
117.539
 30
0
 10
233.402
 20
117.532
 30
0
 10
233.386
 20
117.525
 30
0
 10
233.366
 20
117.516
 30
0
 10
233.346
 20
117.507
 30
0
 10
233.326
 20
117.499
 30
0
 10
233.303
 20
117.488
 30
0
 10
233.281
 20
117.478
 30
0
 10
233.258
 20
117.468
 30
0
 10
233.232
 20
117.457
 30
0
 10
233.207
 20
117.446
 30
0
 10
233.181
 20
117.435
 30
0
 10
233.127
 20
117.411
 30
0
 10
233.069
 20
117.385
 30
0
 10
233.008
 20
117.359
 30
0
 10
232.883
 20
117.304
 30
0
 10
232.748
 20
117.244
 30
0
 10
232.61
 20
117.184
 30
0
  0
SPLINE
  5
A53
330
A02
100
AcDbEntity
  8
View
100
AcDbSpline
210
0
220
0
230
1
 70
8
 71
3
 72
35
 73
31
 74
0
 40
0
 40
0
 40
0
 40
0
 40
0.1122
 40
0.1122
 40
0.1122
 40
0.224399
 40
0.224399
 40
0.224399
 40
0.336599
 40
0.336599
 40
0.336599
 40
0.448799
 40
0.448799
 40
0.448799
 40
0.560999
 40
0.560999
 40
0.560999
 40
0.673198
 40
0.673198
 40
0.673198
 40
0.785398
 40
0.785398
 40
0.785398
 40
0.897598
 40
0.897598
 40
0.897598
 40
1.122
 40
1.122
 40
1.122
 40
1.5708
 40
1.5708
 40
1.5708
 40
1.5708
 10
134.704
 20
127.844
 30
0
 10
134.704
 20
127.847
 30
0
 10
134.704
 20
127.849
 30
0
 10
134.704
 20
127.851
 30
0
 10
134.704
 20
127.857
 30
0
 10
134.704
 20
127.863
 30
0
 10
134.704
 20
127.87
 30
0
 10
134.704
 20
127.88
 30
0
 10
134.704
 20
127.89
 30
0
 10
134.704
 20
127.901
 30
0
 10
134.704
 20
127.915
 30
0
 10
134.704
 20
127.929
 30
0
 10
134.704
 20
127.944
 30
0
 10
134.704
 20
127.962
 30
0
 10
134.704
 20
127.98
 30
0
 10
134.704
 20
127.998
 30
0
 10
134.704
 20
128.019
 30
0
 10
134.704
 20
128.041
 30
0
 10
134.704
 20
128.063
 30
0
 10
134.704
 20
128.088
 30
0
 10
134.704
 20
128.112
 30
0
 10
134.704
 20
128.137
 30
0
 10
134.704
 20
128.165
 30
0
 10
134.704
 20
128.193
 30
0
 10
134.704
 20
128.221
 30
0
 10
134.704
 20
128.281
 30
0
 10
134.703
 20
128.344
 30
0
 10
134.703
 20
128.411
 30
0
 10
134.703
 20
128.546
 30
0
 10
134.703
 20
128.695
 30
0
 10
134.703
 20
128.844
 30
0
  0
SPLINE
  5
A54
330
A02
100
AcDbEntity
  8
View
100
AcDbSpline
210
0
220
0
230
1
 70
8
 71
3
 72
35
 73
31
 74
0
 40
0
 40
0
 40
0
 40
0
 40
0.1122
 40
0.1122
 40
0.1122
 40
0.224399
 40
0.224399
 40
0.224399
 40
0.336599
 40
0.336599
 40
0.336599
 40
0.448799
 40
0.448799
 40
0.448799
 40
0.560999
 40
0.560999
 40
0.560999
 40
0.673198
 40
0.673198
 40
0.673198
 40
0.785398
 40
0.785398
 40
0.785398
 40
0.897598
 40
0.897598
 40
0.897598
 40
1.122
 40
1.122
 40
1.122
 40
1.5708
 40
1.5708
 40
1.5708
 40
1.5708
 10
117.312
 20
114.265
 30
0
 10
117.31
 20
114.267
 30
0
 10
117.309
 20
114.268
 30
0
 10
117.307
 20
114.27
 30
0
 10
117.303
 20
114.275
 30
0
 10
117.299
 20
114.279
 30
0
 10
117.295
 20
114.284
 30
0
 10
117.288
 20
114.292
 30
0
 10
117.282
 20
114.3
 30
0
 10
117.275
 20
114.308
 30
0
 10
117.266
 20
114.318
 30
0
 10
117.256
 20
114.329
 30
0
 10
117.247
 20
114.34
 30
0
 10
117.235
 20
114.354
 30
0
 10
117.223
 20
114.367
 30
0
 10
117.212
 20
114.381
 30
0
 10
117.198
 20
114.398
 30
0
 10
117.183
 20
114.414
 30
0
 10
117.169
 20
114.43
 30
0
 10
117.153
 20
114.449
 30
0
 10
117.137
 20
114.468
 30
0
 10
117.121
 20
114.487
 30
0
 10
117.102
 20
114.508
 30
0
 10
117.084
 20
114.529
 30
0
 10
117.066
 20
114.55
 30
0
 10
117.027
 20
114.596
 30
0
 10
116.986
 20
114.644
 30
0
 10
116.942
 20
114.694
 30
0
 10
116.854
 20
114.797
 30
0
 10
116.757
 20
114.91
 30
0
 10
116.659
 20
115.023
 30
0
  0
SPLINE
  5
A55
330
A02
100
AcDbEntity
  8
View
100
AcDbSpline
210
0
220
0
230
1
 70
8
 71
3
 72
35
 73
31
 74
0
 40
0
 40
0
 40
0
 40
0
 40
0.1122
 40
0.1122
 40
0.1122
 40
0.224399
 40
0.224399
 40
0.224399
 40
0.336599
 40
0.336599
 40
0.336599
 40
0.448799
 40
0.448799
 40
0.448799
 40
0.560999
 40
0.560999
 40
0.560999
 40
0.673198
 40
0.673198
 40
0.673198
 40
0.785398
 40
0.785398
 40
0.785398
 40
0.897598
 40
0.897598
 40
0.897598
 40
1.122
 40
1.122
 40
1.122
 40
1.5708
 40
1.5708
 40
1.5708
 40
1.5708
 10
111.98
 20
112.287
 30
0
 10
111.98
 20
112.29
 30
0
 10
111.98
 20
112.292
 30
0
 10
111.98
 20
112.294
 30
0
 10
111.98
 20
112.3
 30
0
 10
111.98
 20
112.306
 30
0
 10
111.98
 20
112.313
 30
0
 10
111.98
 20
112.323
 30
0
 10
111.98
 20
112.333
 30
0
 10
111.98
 20
112.344
 30
0
 10
111.98
 20
112.358
 30
0
 10
111.98
 20
112.372
 30
0
 10
111.98
 20
112.387
 30
0
 10
111.98
 20
112.405
 30
0
 10
111.98
 20
112.423
 30
0
 10
111.98
 20
112.441
 30
0
 10
111.98
 20
112.462
 30
0
 10
111.98
 20
112.484
 30
0
 10
111.98
 20
112.506
 30
0
 10
111.98
 20
112.531
 30
0
 10
111.98
 20
112.555
 30
0
 10
111.98
 20
112.58
 30
0
 10
111.98
 20
112.608
 30
0
 10
111.98
 20
112.636
 30
0
 10
111.98
 20
112.664
 30
0
 10
111.98
 20
112.724
 30
0
 10
111.98
 20
112.787
 30
0
 10
111.98
 20
112.854
 30
0
 10
111.981
 20
112.989
 30
0
 10
111.981
 20
113.138
 30
0
 10
111.981
 20
113.287
 30
0
  0
SPLINE
  5
A56
330
A02
100
AcDbEntity
  8
View
100
AcDbSpline
210
0
220
0
230
1
 70
8
 71
3
 72
35
 73
31
 74
0
 40
0
 40
0
 40
0
 40
0
 40
0.1122
 40
0.1122
 40
0.1122
 40
0.224399
 40
0.224399
 40
0.224399
 40
0.336599
 40
0.336599
 40
0.336599
 40
0.448799
 40
0.448799
 40
0.448799
 40
0.560999
 40
0.560999
 40
0.560999
 40
0.673198
 40
0.673198
 40
0.673198
 40
0.785398
 40
0.785398
 40
0.785398
 40
0.897598
 40
0.897598
 40
0.897598
 40
1.122
 40
1.122
 40
1.122
 40
1.5708
 40
1.5708
 40
1.5708
 40
1.5708
 10
70.181
 20
112.317
 30
0
 10
70.181
 20
112.32
 30
0
 10
70.181
 20
112.322
 30
0
 10
70.181
 20
112.324
 30
0
 10
70.181
 20
112.33
 30
0
 10
70.181
 20
112.336
 30
0
 10
70.181
 20
112.343
 30
0
 10
70.181
 20
112.353
 30
0
 10
70.181
 20
112.363
 30
0
 10
70.181
 20
112.374
 30
0
 10
70.181
 20
112.388
 30
0
 10
70.181
 20
112.402
 30
0
 10
70.181
 20
112.417
 30
0
 10
70.181
 20
112.435
 30
0
 10
70.181
 20
112.453
 30
0
 10
70.181
 20
112.471
 30
0
 10
70.181
 20
112.492
 30
0
 10
70.181
 20
112.514
 30
0
 10
70.181
 20
112.536
 30
0
 10
70.181
 20
112.561
 30
0
 10
70.181
 20
112.585
 30
0
 10
70.181
 20
112.61
 30
0
 10
70.181
 20
112.638
 30
0
 10
70.181
 20
112.666
 30
0
 10
70.181
 20
112.694
 30
0
 10
70.181
 20
112.754
 30
0
 10
70.181
 20
112.817
 30
0
 10
70.181
 20
112.884
 30
0
 10
70.181
 20
113.019
 30
0
 10
70.181
 20
113.168
 30
0
 10
70.181
 20
113.317
 30
0
  0
LINE
  5
A57
330
A02
100
AcDbEntity
  8
View
100
AcDbLine
 10
81.387
 20
120.15
 30
0
 11
81.337
 21
120.15
 31
0
  0
LINE
  5
A58
330
A02
100
AcDbEntity
  8
View
100
AcDbLine
 10
225.387
 20
120.15
 30
0
 11
225.337
 21
120.15
 31
0
  0
LINE
  5
A59
330
A02
100
AcDbEntity
  8
View
100
AcDbLine
 10
103.887
 20
180.65
 30
0
 11
103.837
 21
180.65
 31
0
  0
LINE
  5
A5A
330
A02
100
AcDbEntity
  8
View
100
AcDbLine
 10
201.887
 20
180.65
 30
0
 11
201.837
 21
180.65
 31
0
  0
LINE
  5
A5B
330
A02
100
AcDbEntity
  8
View
100
AcDbLine
 10
81.337
 20
120.15
 30
0
 11
79.637
 21
120.15
 31
0
  0
LINE
  5
A5C
330
A02
100
AcDbEntity
  8
View
100
AcDbLine
 10
225.337
 20
120.15
 30
0
 11
223.637
 21
120.15
 31
0
  0
LINE
  5
A5D
330
A02
100
AcDbEntity
  8
View
100
AcDbLine
 10
103.837
 20
180.65
 30
0
 11
102.137
 21
180.65
 31
0
  0
LINE
  5
A5E
330
A02
100
AcDbEntity
  8
View
100
AcDbLine
 10
201.837
 20
180.65
 30
0
 11
200.137
 21
180.65
 31
0
  0
ENDSEC
  0
SECTION
  2
OBJECTS
  0
DICTIONARY
  5
F000
330
0
100
AcDbDictionary
  3
ACAD_GROUP
350
F001
  0
DICTIONARY
  5
F001
330
F000
100
AcDbDictionary
  0
ENDSEC
  0
EOF