999
FreeCAD v0.21 33771 (Git)
  0
SECTION
  2
HEADER
  9
$ACADVER
  1
AC1014
  9
$ACADMAINTVER
 70
     9
  9
$DWGCODEPAGE
  3
ANSI_1252
  9
$TEXTSTYLE
  7
STANDARD
  9
$DIMSTYLE
  2
STANDARD
  9
$DIMTXSTY
  7
STANDARD
  9
$CMLSTYLE
  2
STANDARD
  9
$LUNITS
 70
2
  9
$INSUNITS
 70
4
  9
$PEXTMAX
 10
50
 20
50
 30
50
  9
$PEXTMIN
 10
0
 20
0
 30
0
  9
$HANDSEED
  5
FFFF
  0
ENDSEC
  0
SECTION
  2
CLASSES
  0
CLASS
  1
ACDBDICTIONARYWDFLT
  2
AcDbDictionaryWithDefault
  3
ObjectDBX Classes
 90
        0
280
     0
281
     0
  0
CLASS
  1
XRECORD
  2
AcDbXrecord
  3
ObjectDBX Classes
 90
        0
280
     0
281
     0
  0
CLASS
  1
LWPOLYLINE
  2
AcDbPolyline
  3
ObjectDBX Classes
 90
        0
280
     0
281
     1
  0
ENDSEC
  0
SECTION
  2
TABLES
  0
TABLE
  2
VPORT
  5
20
330
0
100
AcDbSymbolTable
 70
     1
  0
VPORT
  5
21
330
20
100
AcDbSymbolTableRecord
100
AcDbViewportTableRecord
  2
*ACTIVE
 70
     0
  0
ENDTAB
  0
TABLE
  2
LTYPE
  5
22
330
0
100
AcDbSymbolTable
 70
     1
  0
LTYPE
  5
23
330
21
100
AcDbSymbolTableRecord
100
AcDbLinetypeTableRecord
  2
BYBLOCK
 70
     0
  3

 72
    65
 73
     0
 40
0.0
  0
LTYPE
  5
24
330
21
100
AcDbSymbolTableRecord
100
AcDbLinetypeTableRecord
  2
BYLAYER
 70
     0
  3

 72
    65
 73
     0
 40
0.0
  0
LTYPE
  5
25
330
21
100
AcDbSymbolTableRecord
100
AcDbLinetypeTableRecord
  2
CONTINUOUS
 70
     0
  3
Solid line
 72
    65
 73
     0
 40
0.0
  0
ENDTAB
  0
TABLE
  2
LAYER
  5
A75
330
0
100
AcDbSymbolTable
 70
2
  0
LAYER
  5
A76
330
A75
100
AcDbSymbolTableRecord
100
AcDbLayerTableRecord
  2
0
 70
   0
 62
   7
  6
CONTINUOUS
  0
LAYER
  5
A77
330
A75
100
AcDbSymbolTableRecord
100
AcDbLayerTableRecord
  2
View001
 70
    0
 62
    7
  6
CONTINUOUS
  0
ENDTAB
  0
TABLE
  2
STYLE
  5
70
330
0
100
AcDbSymbolTable
 70
     2
  0
STYLE
  5
71
330
70
100
AcDbSymbolTableRecord
100
AcDbTextStyleTableRecord
  2
STANDARD
 70
     0
 40
0.0
 41
1.0
 50
0.0
 71
     0
 42
2.5
  3
arial.ttf
  4

  0
STYLE
  5
72
330
70
100
AcDbSymbolTableRecord
100
AcDbTextStyleTableRecord
  2
ANNOTATIVE
 70
     0
 40
0.0
 41
1.0
 50
0.0
 71
     0
 42
2.5
  3
arial.ttf
  4

  0
ENDTAB
  0
TABLE
  2
VIEW
  5
73
330
0
100
AcDbSymbolTable
 70
     0
  0
ENDTAB
  0
TABLE
  2
UCS
  5
74
330
0
100
AcDbSymbolTable
 70
     0
  0
ENDTAB
  0
TABLE
  2
APPID
  5
75
330
0
100
AcDbSymbolTable
 70
     2
  0
APPID
  5
76
330
75
100
AcDbSymbolTableRecord
100
AcDbRegAppTableRecord
  2
ACAD
 70
     0
  0
APPID
  5
77
330
75
100
AcDbSymbolTableRecord
100
AcDbRegAppTableRecord
  2
ACADANNOTATIVE
 70
     0
  0
ENDTAB
  0
TABLE
  2
DIMSTYLE
  5
78
330
0
100
AcDbSymbolTable
 70
     2
  0
DIMSTYLE
105
79
330
78
100
AcDbSymbolTableRecord
100
AcDbDimStyleTableRecord
  2
STANDARD
 70
     0
  3

  4

  5

  6

  7

 40
0.0
 41
2.5
 42
0.625
 43
3.75
 44
1.25
 45
0.0
 46
0.0
 47
0.0
 48
0.0
140
2.5
141
2.5
142
0.0
143
0.03937007874016
144
1.0
145
0.0
146
1.0
147
0.625
 71
     0
 72
     0
 73
     0
 74
     0
 75
     0
 76
     0
 77
     1
 78
     8
170
     0
171
     3
172
     1
173
     0
174
     0
175
     0
176
     0
177
     0
178
     0
270
     2
271
     2
272
     2
273
     2
274
     3
340
71
275
     0
280
     0
281
     0
282
     0
283
     0
284
     8
285
     0
286
     0
287
     3
288
     0
  0
ENDTAB
  0
TABLE
  2
BLOCK_RECORD
  5
A01
330
0
100
AcDbSymbolTable
  70
5
  0
BLOCK_RECORD
  5
A02
330
A01
100
AcDbSymbolTableRecord
100
AcDbBlockTableRecord
  2
*MODEL_SPACE
  0
BLOCK_RECORD
  5
A03
330
A01
100
AcDbSymbolTableRecord
100
AcDbBlockTableRecord
  2
*PAPER_SPACE
  0
ENDTAB
  0
ENDSEC
  0
SECTION
  2
BLOCKS
  0
BLOCK
  5
A04
330
A02
100
AcDbEntity
  8
0
100
AcDbBlockBegin
  2
*MODEL_SPACE
 70
   0
 10
0
 20
0
 30
0
  3
*MODEL_SPACE
  1
 
  0
ENDBLK
  5
A05
330
A02
100
AcDbEntity
  8
0
100
AcDbBlockEnd
  0
BLOCK
  5
A06
330
A03
100
AcDbEntity
 67
1
  8
0
100
AcDbBlockBegin
  2
*PAPER_SPACE
 70
   0
 10
0
 20
0
 30
0
  3
*PAPER_SPACE
  1
 
  0
ENDBLK
  5
A07
330
A03
100
AcDbEntity
 67
    1
  8
0
100
AcDbBlockEnd
  0
ENDSEC
  0
SECTION
  2
ENTITIES
  0
LINE
  5
A08
330
A02
100
AcDbEntity
  8
View001
100
AcDbLine
 10
199.642
 20
112.288
 30
0
 11
99.373
 21
112.287
 31
0
  0
ARC
  5
A09
330
A02
100
AcDbEntity
  8
View001
100
AcDbCircle
 10
99.373
 20
118.522
 30
0
 40
6.234
100
AcDbArc
 50
-155.7
 51
-90
  0
LINE
  5
A0A
330
A02
100
AcDbEntity
  8
View001
100
AcDbLine
 10
93.6913
 20
115.956
 30
0
 11
66.3442
 21
182.45
 31
0
  0
LINE
  5
A0B
330
A02
100
AcDbEntity
  8
View001
100
AcDbLine
 10
233.526
 20
182.414
 30
0
 11
205.04
 21
115.774
 31
0
  0
LINE
  5
A0C
330
A02
100
AcDbEntity
  8
View001
100
AcDbLine
 10
70.181
 20
187.683
 30
0
 11
111.98
 21
187.713
 31
0
  0
LINE
  5
A0D
330
A02
100
AcDbEntity
  8
View001
100
AcDbLine
 10
188.362
 20
187.678
 30
0
 11
230.096
 21
187.666
 31
0
  0
LINE
  5
A0E
330
A02
100
AcDbEntity
  8
View001
100
AcDbLine
 10
117.312
 20
185.735
 30
0
 11
128.998
 21
174.137
 31
0
  0
LINE
  5
A0F
330
A02
100
AcDbEntity
  8
View001
100
AcDbLine
 10
170.904
 20
174.108
 30
0
 11
182.656
 21
185.696
 31
0
  0
LINE
  5
A10
330
A02
100
AcDbEntity
  8
View001
100
AcDbLine
 10
165.09
 20
172.124
 30
0
 11
134.704
 21
172.155
 31
0
  0
CIRCLE
  5
A11
330
A02
100
AcDbEntity
  8
View001
100
AcDbCircle
 10
77.937
 20
179.85
 40
1.6
  0
CIRCLE
  5
A12
330
A02
100
AcDbEntity
  8
View001
100
AcDbCircle
 10
221.937
 20
179.85
 40
1.6
  0
CIRCLE
  5
A13
330
A02
100
AcDbEntity
  8
View001
100
AcDbCircle
 10
100.437
 20
119.35
 40
1.6
  0
CIRCLE
  5
A14
330
A02
100
AcDbEntity
  8
View001
100
AcDbCircle
 10
198.437
 20
119.35
 40
1.6
  0
ARC
  5
A15
330
A02
100
AcDbEntity
  8
View001
100
AcDbCircle
 10
199.642
 20
118.212
 30
0
 40
5.923
100
AcDbArc
 50
-90
 51
-24.3
  0
ARC
  5
A16
330
A02
100
AcDbEntity
  8
View001
100
AcDbCircle
 10
188.362
 20
178.471
 30
0
 40
9.206
100
AcDbArc
 50
90
 51
128.3
  0
SPLINE
  5
A17
330
A02
100
AcDbEntity
  8
View001
100
AcDbSpline
210
0
220
0
230
1
 70
8
 71
3
 72
11
 73
7
 74
0
 40
0
 40
0
 40
0
 40
0
 40
0.471928
 40
0.471928
 40
0.471928
 40
1
 40
1
 40
1
 40
1
 10
170.904
 20
174.108
 30
0
 10
170.903
 20
174.109
 30
0
 10
170.967
 20
174.036
 30
0
 10
171.077
 20
173.91
 30
0
 10
171.2
 20
173.77
 30
0
 10
171.381
 20
173.563
 30
0
 10
171.564
 20
173.355
 30
0
  0
ARC
  5
A18
330
A02
100
AcDbEntity
  8
View001
100
AcDbCircle
 10
165.09
 20
181.63
 30
0
 40
9.507
100
AcDbArc
 50
-90
 51
-52.3
  0
ARC
  5
A19
330
A02
100
AcDbEntity
  8
View001
100
AcDbCircle
 10
230.096
 20
183.919
 30
0
 40
3.746
100
AcDbArc
 50
-23.7
 51
90
  0
ARC
  5
A1A
330
A02
100
AcDbEntity
  8
View001
100
AcDbCircle
 10
134.704
 20
181.362
 30
0
 40
9.206
100
AcDbArc
 50
-128.3
 51
-90
  0
SPLINE
  5
A1B
330
A02
100
AcDbEntity
  8
View001
100
AcDbSpline
210
0
220
0
230
1
 70
8
 71
3
 72
11
 73
7
 74
0
 40
0
 40
0
 40
0
 40
0
 40
0.471477
 40
0.471477
 40
0.471477
 40
1
 40
1
 40
1
 40
1
 10
128.998
 20
174.137
 30
0
 10
128.999
 20
174.137
 30
0
 10
128.935
 20
174.066
 30
0
 10
128.824
 20
173.94
 30
0
 10
128.7
 20
173.801
 30
0
 10
128.518
 20
173.595
 30
0
 10
128.333
 20
173.388
 30
0
  0
ARC
  5
A1C
330
A02
100
AcDbEntity
  8
View001
100
AcDbCircle
 10
111.98
 20
179.536
 30
0
 40
8.176
100
AcDbArc
 50
49.3
 51
90
  0
ARC
  5
A1D
330
A02
100
AcDbEntity
  8
View001
100
AcDbCircle
 10
70.181
 20
183.66
 30
0
 40
4.023
100
AcDbArc
 50
90
 51
-162.5
  0
LINE
  5
A1E
330
A02
100
AcDbEntity
  8
View001
100
AcDbLine
 10
75.3967
 20
175.449
 30
0
 11
80.4773
 21
175.45
 31
0
  0
LINE
  5
A1F
330
A02
100
AcDbEntity
  8
View001
100
AcDbLine
 10
72.8563
 20
179.849
 30
0
 11
75.3967
 21
175.449
 31
0
  0
LINE
  5
A20
330
A02
100
AcDbEntity
  8
View001
100
AcDbLine
 10
75.3967
 20
184.249
 30
0
 11
72.8563
 21
179.849
 31
0
  0
LINE
  5
A21
330
A02
100
AcDbEntity
  8
View001
100
AcDbLine
 10
80.4773
 20
184.25
 30
0
 11
75.3967
 21
184.249
 31
0
  0
LINE
  5
A22
330
A02
100
AcDbEntity
  8
View001
100
AcDbLine
 10
83.0177
 20
179.85
 30
0
 11
80.4773
 21
184.25
 31
0
  0
LINE
  5
A23
330
A02
100
AcDbEntity
  8
View001
100
AcDbLine
 10
80.4773
 20
175.45
 30
0
 11
83.0177
 21
179.85
 31
0
  0
LINE
  5
A24
330
A02
100
AcDbEntity
  8
View001
100
AcDbLine
 10
219.397
 20
175.45
 30
0
 11
224.477
 21
175.449
 31
0
  0
LINE
  5
A25
330
A02
100
AcDbEntity
  8
View001
100
AcDbLine
 10
216.856
 20
179.85
 30
0
 11
219.397
 21
175.45
 31
0
  0
LINE
  5
A26
330
A02
100
AcDbEntity
  8
View001
100
AcDbLine
 10
219.397
 20
184.25
 30
0
 11
216.856
 21
179.85
 31
0
  0
LINE
  5
A27
330
A02
100
AcDbEntity
  8
View001
100
AcDbLine
 10
224.477
 20
184.249
 30
0
 11
219.397
 21
184.25
 31
0
  0
LINE
  5
A28
330
A02
100
AcDbEntity
  8
View001
100
AcDbLine
 10
227.018
 20
179.849
 30
0
 11
224.477
 21
184.249
 31
0
  0
LINE
  5
A29
330
A02
100
AcDbEntity
  8
View001
100
AcDbLine
 10
224.477
 20
175.449
 30
0
 11
227.018
 21
179.849
 31
0
  0
LINE
  5
A2A
330
A02
100
AcDbEntity
  8
View001
100
AcDbLine
 10
95.3563
 20
119.35
 30
0
 11
97.8967
 21
114.949
 31
0
  0
LINE
  5
A2B
330
A02
100
AcDbEntity
  8
View001
100
AcDbLine
 10
97.8967
 20
123.75
 30
0
 11
95.3563
 21
119.35
 31
0
  0
LINE
  5
A2C
330
A02
100
AcDbEntity
  8
View001
100
AcDbLine
 10
102.977
 20
123.75
 30
0
 11
97.8967
 21
123.75
 31
0
  0
LINE
  5
A2D
330
A02
100
AcDbEntity
  8
View001
100
AcDbLine
 10
105.518
 20
119.35
 30
0
 11
102.977
 21
123.75
 31
0
  0
LINE
  5
A2E
330
A02
100
AcDbEntity
  8
View001
100
AcDbLine
 10
102.977
 20
114.949
 30
0
 11
105.518
 21
119.35
 31
0
  0
LINE
  5
A2F
330
A02
100
AcDbEntity
  8
View001
100
AcDbLine
 10
97.8967
 20
114.949
 30
0
 11
102.977
 21
114.949
 31
0
  0
LINE
  5
A30
330
A02
100
AcDbEntity
  8
View001
100
AcDbLine
 10
195.897
 20
114.949
 30
0
 11
200.977
 21
114.95
 31
0
  0
LINE
  5
A31
330
A02
100
AcDbEntity
  8
View001
100
AcDbLine
 10
193.356
 20
119.349
 30
0
 11
195.897
 21
114.949
 31
0
  0
LINE
  5
A32
330
A02
100
AcDbEntity
  8
View001
100
AcDbLine
 10
195.897
 20
123.749
 30
0
 11
193.356
 21
119.349
 31
0
  0
LINE
  5
A33
330
A02
100
AcDbEntity
  8
View001
100
AcDbLine
 10
200.977
 20
123.75
 30
0
 11
195.897
 21
123.749
 31
0
  0
LINE
  5
A34
330
A02
100
AcDbEntity
  8
View001
100
AcDbLine
 10
203.518
 20
119.35
 30
0
 11
200.977
 21
123.75
 31
0
  0
LINE
  5
A35
330
A02
100
AcDbEntity
  8
View001
100
AcDbLine
 10
200.977
 20
114.95
 30
0
 11
203.518
 21
119.35
 31
0
  0
LINE
  5
A36
330
A02
100
AcDbEntity
  8
View001
100
AcDbLine
 10
79.8773
 20
176.489
 30
0
 11
81.8177
 21
179.85
 31
0
  0
LINE
  5
A37
330
A02
100
AcDbEntity
  8
View001
100
AcDbLine
 10
81.8177
 20
179.85
 30
0
 11
79.8773
 21
183.21
 31
0
  0
LINE
  5
A38
330
A02
100
AcDbEntity
  8
View001
100
AcDbLine
 10
79.8773
 20
183.21
 30
0
 11
75.9967
 21
183.21
 31
0
  0
LINE
  5
A39
330
A02
100
AcDbEntity
  8
View001
100
AcDbLine
 10
75.9967
 20
183.21
 30
0
 11
74.0563
 21
179.849
 31
0
  0
LINE
  5
A3A
330
A02
100
AcDbEntity
  8
View001
100
AcDbLine
 10
74.0563
 20
179.849
 30
0
 11
75.9967
 21
176.489
 31
0
  0
LINE
  5
A3B
330
A02
100
AcDbEntity
  8
View001
100
AcDbLine
 10
75.9967
 20
176.489
 30
0
 11
79.8773
 21
176.489
 31
0
  0
LINE
  5
A3C
330
A02
100
AcDbEntity
  8
View001
100
AcDbLine
 10
223.877
 20
176.489
 30
0
 11
225.818
 21
179.849
 31
0
  0
LINE
  5
A3D
330
A02
100
AcDbEntity
  8
View001
100
AcDbLine
 10
225.818
 20
179.849
 30
0
 11
223.877
 21
183.21
 31
0
  0
LINE
  5
A3E
330
A02
100
AcDbEntity
  8
View001
100
AcDbLine
 10
223.877
 20
183.21
 30
0
 11
219.997
 21
183.21
 31
0
  0
LINE
  5
A3F
330
A02
100
AcDbEntity
  8
View001
100
AcDbLine
 10
219.997
 20
183.21
 30
0
 11
218.056
 21
179.85
 31
0
  0
LINE
  5
A40
330
A02
100
AcDbEntity
  8
View001
100
AcDbLine
 10
218.056
 20
179.85
 30
0
 11
219.997
 21
176.489
 31
0
  0
LINE
  5
A41
330
A02
100
AcDbEntity
  8
View001
100
AcDbLine
 10
219.997
 20
176.489
 30
0
 11
223.877
 21
176.489
 31
0
  0
LINE
  5
A42
330
A02
100
AcDbEntity
  8
View001
100
AcDbLine
 10
102.377
 20
115.989
 30
0
 11
104.318
 21
119.349
 31
0
  0
LINE
  5
A43
330
A02
100
AcDbEntity
  8
View001
100
AcDbLine
 10
104.318
 20
119.349
 30
0
 11
102.377
 21
122.71
 31
0
  0
LINE
  5
A44
330
A02
100
AcDbEntity
  8
View001
100
AcDbLine
 10
102.377
 20
122.71
 30
0
 11
98.4967
 21
122.71
 31
0
  0
LINE
  5
A45
330
A02
100
AcDbEntity
  8
View001
100
AcDbLine
 10
98.4967
 20
122.71
 30
0
 11
96.5563
 21
119.35
 31
0
  0
LINE
  5
A46
330
A02
100
AcDbEntity
  8
View001
100
AcDbLine
 10
96.5563
 20
119.35
 30
0
 11
98.4967
 21
115.989
 31
0
  0
LINE
  5
A47
330
A02
100
AcDbEntity
  8
View001
100
AcDbLine
 10
98.4967
 20
115.989
 30
0
 11
102.377
 21
115.989
 31
0
  0
LINE
  5
A48
330
A02
100
AcDbEntity
  8
View001
100
AcDbLine
 10
200.377
 20
115.989
 30
0
 11
202.318
 21
119.35
 31
0
  0
LINE
  5
A49
330
A02
100
AcDbEntity
  8
View001
100
AcDbLine
 10
202.318
 20
119.35
 30
0
 11
200.377
 21
122.71
 31
0
  0
LINE
  5
A4A
330
A02
100
AcDbEntity
  8
View001
100
AcDbLine
 10
200.377
 20
122.71
 30
0
 11
196.497
 21
122.71
 31
0
  0
LINE
  5
A4B
330
A02
100
AcDbEntity
  8
View001
100
AcDbLine
 10
196.497
 20
122.71
 30
0
 11
194.556
 21
119.349
 31
0
  0
LINE
  5
A4C
330
A02
100
AcDbEntity
  8
View001
100
AcDbLine
 10
194.556
 20
119.349
 30
0
 11
196.497
 21
115.989
 31
0
  0
LINE
  5
A4D
330
A02
100
AcDbEntity
  8
View001
100
AcDbLine
 10
196.497
 20
115.989
 30
0
 11
200.377
 21
115.989
 31
0
  0
ARC
  5
A4E
330
A02
100
AcDbEntity
  8
View001
100
AcDbCircle
 10
99.373
 20
118.522
 30
0
 40
6.234
100
AcDbArc
 50
-155.7
 51
-90
  0
SPLINE
  5
A4F
330
A02
100
AcDbEntity
  8
View001
100
AcDbSpline
210
0
220
0
230
1
 70
8
 71
3
 72
35
 73
31
 74
0
 40
0
 40
0
 40
0
 40
0
 40
0.1122
 40
0.1122
 40
0.1122
 40
0.224399
 40
0.224399
 40
0.224399
 40
0.336599
 40
0.336599
 40
0.336599
 40
0.448799
 40
0.448799
 40
0.448799
 40
0.560999
 40
0.560999
 40
0.560999
 40
0.673198
 40
0.673198
 40
0.673198
 40
0.785398
 40
0.785398
 40
0.785398
 40
0.897598
 40
0.897598
 40
0.897598
 40
1.122
 40
1.122
 40
1.122
 40
1.5708
 40
1.5708
 40
1.5708
 40
1.5708
 10
99.373
 20
112.287
 30
0
 10
99.373
 20
112.29
 30
0
 10
99.373
 20
112.292
 30
0
 10
99.373
 20
112.294
 30
0
 10
99.373
 20
112.3
 30
0
 10
99.373
 20
112.306
 30
0
 10
99.373
 20
112.313
 30
0
 10
99.373
 20
112.323
 30
0
 10
99.373
 20
112.333
 30
0
 10
99.373
 20
112.344
 30
0
 10
99.373
 20
112.358
 30
0
 10
99.373
 20
112.372
 30
0
 10
99.373
 20
112.387
 30
0
 10
99.373
 20
112.405
 30
0
 10
99.373
 20
112.423
 30
0
 10
99.373
 20
112.441
 30
0
 10
99.373
 20
112.462
 30
0
 10
99.373
 20
112.484
 30
0
 10
99.373
 20
112.506
 30
0
 10
99.373
 20
112.531
 30
0
 10
99.373
 20
112.555
 30
0
 10
99.373
 20
112.58
 30
0
 10
99.373
 20
112.608
 30
0
 10
99.373
 20
112.636
 30
0
 10
99.373
 20
112.664
 30
0
 10
99.373
 20
112.724
 30
0
 10
99.373
 20
112.787
 30
0
 10
99.373
 20
112.854
 30
0
 10
99.373
 20
112.989
 30
0
 10
99.373
 20
113.138
 30
0
 10
99.373
 20
113.287
 30
0
  0
ARC
  5
A50
330
A02
100
AcDbEntity
  8
View001
100
AcDbCircle
 10
99.373
 20
118.522
 30
0
 40
5.234
100
AcDbArc
 50
-155.7
 51
-90
  0
SPLINE
  5
A51
330
A02
100
AcDbEntity
  8
View001
100
AcDbSpline
210
0
220
0
230
1
 70
8
 71
3
 72
35
 73
31
 74
0
 40
0
 40
0
 40
0
 40
0
 40
0.1122
 40
0.1122
 40
0.1122
 40
0.224399
 40
0.224399
 40
0.224399
 40
0.336599
 40
0.336599
 40
0.336599
 40
0.448799
 40
0.448799
 40
0.448799
 40
0.560999
 40
0.560999
 40
0.560999
 40
0.673198
 40
0.673198
 40
0.673198
 40
0.785398
 40
0.785398
 40
0.785398
 40
0.897598
 40
0.897598
 40
0.897598
 40
1.122
 40
1.122
 40
1.122
 40
1.5708
 40
1.5708
 40
1.5708
 40
1.5708
 10
93.6913
 20
115.956
 30
0
 10
93.6932
 20
115.957
 30
0
 10
93.6951
 20
115.958
 30
0
 10
93.697
 20
115.959
 30
0
 10
93.7027
 20
115.961
 30
0
 10
93.7085
 20
115.964
 30
0
 10
93.7142
 20
115.966
 30
0
 10
93.7236
 20
115.971
 30
0
 10
93.733
 20
115.975
 30
0
 10
93.7425
 20
115.979
 30
0
 10
93.7555
 20
115.985
 30
0
 10
93.7685
 20
115.991
 30
0
 10
93.7816
 20
115.997
 30
0
 10
93.798
 20
116.004
 30
0
 10
93.8145
 20
116.012
 30
0
 10
93.831
 20
116.019
 30
0
 10
93.8507
 20
116.028
 30
0
 10
93.8704
 20
116.037
 30
0
 10
93.8902
 20
116.046
 30
0
 10
93.9129
 20
116.056
 30
0
 10
93.9356
 20
116.066
 30
0
 10
93.9583
 20
116.077
 30
0
 10
93.9837
 20
116.088
 30
0
 10
94.0091
 20
116.1
 30
0
 10
94.0345
 20
116.111
 30
0
 10
94.0889
 20
116.136
 30
0
 10
94.1465
 20
116.162
 30
0
 10
94.2073
 20
116.189
 30
0
 10
94.331
 20
116.245
 30
0
 10
94.4662
 20
116.306
 30
0
 10
94.6027
 20
116.368
 30
0
  0
SPLINE
  5
A52
330
A02
100
AcDbEntity
  8
View001
100
AcDbSpline
210
0
220
0
230
1
 70
8
 71
3
 72
35
 73
31
 74
0
 40
0
 40
0
 40
0
 40
0
 40
0.1122
 40
0.1122
 40
0.1122
 40
0.224399
 40
0.224399
 40
0.224399
 40
0.336599
 40
0.336599
 40
0.336599
 40
0.448799
 40
0.448799
 40
0.448799
 40
0.560999
 40
0.560999
 40
0.560999
 40
0.673198
 40
0.673198
 40
0.673198
 40
0.785398
 40
0.785398
 40
0.785398
 40
0.897598
 40
0.897598
 40
0.897598
 40
1.122
 40
1.122
 40
1.122
 40
1.5708
 40
1.5708
 40
1.5708
 40
1.5708
 10
199.642
 20
112.288
 30
0
 10
199.642
 20
112.291
 30
0
 10
199.642
 20
112.293
 30
0
 10
199.642
 20
112.295
 30
0
 10
199.642
 20
112.301
 30
0
 10
199.642
 20
112.307
 30
0
 10
199.642
 20
112.314
 30
0
 10
199.642
 20
112.324
 30
0
 10
199.642
 20
112.334
 30
0
 10
199.642
 20
112.345
 30
0
 10
199.642
 20
112.359
 30
0
 10
199.642
 20
112.373
 30
0
 10
199.642
 20
112.388
 30
0
 10
199.642
 20
112.406
 30
0
 10
199.642
 20
112.424
 30
0
 10
199.642
 20
112.442
 30
0
 10
199.642
 20
112.463
 30
0
 10
199.642
 20
112.485
 30
0
 10
199.642
 20
112.507
 30
0
 10
199.642
 20
112.532
 30
0
 10
199.642
 20
112.556
 30
0
 10
199.642
 20
112.581
 30
0
 10
199.642
 20
112.609
 30
0
 10
199.642
 20
112.637
 30
0
 10
199.642
 20
112.665
 30
0
 10
199.642
 20
112.725
 30
0
 10
199.642
 20
112.788
 30
0
 10
199.642
 20
112.855
 30
0
 10
199.642
 20
112.99
 30
0
 10
199.642
 20
113.139
 30
0
 10
199.642
 20
113.288
 30
0
  0
LINE
  5
A53
330
A02
100
AcDbEntity
  8
View001
100
AcDbLine
 10
199.642
 20
113.288
 30
0
 11
99.373
 21
113.287
 31
0
  0
ARC
  5
A54
330
A02
100
AcDbEntity
  8
View001
100
AcDbCircle
 10
199.642
 20
118.212
 30
0
 40
5.923
100
AcDbArc
 50
-90
 51
-24.3
  0
ARC
  5
A55
330
A02
100
AcDbEntity
  8
View001
100
AcDbCircle
 10
188.362
 20
178.471
 30
0
 40
8.206
100
AcDbArc
 50
90
 51
127.927
  0
LINE
  5
A56
330
A02
100
AcDbEntity
  8
View001
100
AcDbLine
 10
171.564
 20
173.355
 30
0
 11
183.318
 21
184.944
 31
0
  0
LINE
  5
A57
330
A02
100
AcDbEntity
  8
View001
100
AcDbLine
 10
188.362
 20
186.678
 30
0
 11
230.096
 21
186.666
 31
0
  0
ARC
  5
A58
330
A02
100
AcDbEntity
  8
View001
100
AcDbCircle
 10
165.09
 20
181.63
 30
0
 40
10.507
100
AcDbArc
 50
-90
 51
-51.9633
  0
ARC
  5
A59
330
A02
100
AcDbEntity
  8
View001
100
AcDbCircle
 10
230.096
 20
183.919
 30
0
 40
2.746
100
AcDbArc
 50
-23.7
 51
90
  0
LINE
  5
A5A
330
A02
100
AcDbEntity
  8
View001
100
AcDbLine
 10
165.089
 20
171.124
 30
0
 11
134.703
 21
171.156
 31
0
  0
LINE
  5
A5B
330
A02
100
AcDbEntity
  8
View001
100
AcDbLine
 10
232.607
 20
182.807
 30
0
 11
204.121
 21
116.167
 31
0
  0
ARC
  5
A5C
330
A02
100
AcDbEntity
  8
View001
100
AcDbCircle
 10
134.704
 20
181.362
 30
0
 40
10.206
100
AcDbArc
 50
-128.626
 51
-90
  0
ARC
  5
A5D
330
A02
100
AcDbEntity
  8
View001
100
AcDbCircle
 10
199.642
 20
118.212
 30
0
 40
4.923
100
AcDbArc
 50
-90
 51
-24.3
  0
LINE
  5
A5E
330
A02
100
AcDbEntity
  8
View001
100
AcDbLine
 10
116.607
 20
185.025
 30
0
 11
128.333
 21
173.388
 31
0
  0
ARC
  5
A5F
330
A02
100
AcDbEntity
  8
View001
100
AcDbCircle
 10
111.98
 20
179.536
 30
0
 40
7.176
100
AcDbArc
 50
49.3
 51
90
  0
LINE
  5
A60
330
A02
100
AcDbEntity
  8
View001
100
AcDbLine
 10
70.1817
 20
186.683
 30
0
 11
111.981
 21
186.713
 31
0
  0
LINE
  5
A61
330
A02
100
AcDbEntity
  8
View001
100
AcDbLine
 10
94.6161
 20
116.336
 30
0
 11
67.269
 21
182.83
 31
0
  0
ARC
  5
A62
330
A02
100
AcDbEntity
  8
View001
100
AcDbCircle
 10
70.181
 20
183.66
 30
0
 40
3.023
100
AcDbArc
 50
90
 51
-162.5
  0
SPLINE
  5
A63
330
A02
100
AcDbEntity
  8
View001
100
AcDbSpline
210
0
220
0
230
1
 70
8
 71
3
 72
35
 73
31
 74
0
 40
0
 40
0
 40
0
 40
0
 40
0.1122
 40
0.1122
 40
0.1122
 40
0.224399
 40
0.224399
 40
0.224399
 40
0.336599
 40
0.336599
 40
0.336599
 40
0.448799
 40
0.448799
 40
0.448799
 40
0.560999
 40
0.560999
 40
0.560999
 40
0.673198
 40
0.673198
 40
0.673198
 40
0.785398
 40
0.785398
 40
0.785398
 40
0.897598
 40
0.897598
 40
0.897598
 40
1.122
 40
1.122
 40
1.122
 40
1.5708
 40
1.5708
 40
1.5708
 40
1.5708
 10
66.3442
 20
182.45
 30
0
 10
66.3461
 20
182.451
 30
0
 10
66.3481
 20
182.451
 30
0
 10
66.35
 20
182.452
 30
0
 10
66.3558
 20
182.455
 30
0
 10
66.3616
 20
182.457
 30
0
 10
66.3674
 20
182.459
 30
0
 10
66.377
 20
182.463
 30
0
 10
66.3865
 20
182.467
 30
0
 10
66.3961
 20
182.471
 30
0
 10
66.4093
 20
182.477
 30
0
 10
66.4226
 20
182.482
 30
0
 10
66.4358
 20
182.487
 30
0
 10
66.4525
 20
182.494
 30
0
 10
66.4692
 20
182.501
 30
0
 10
66.486
 20
182.508
 30
0
 10
66.506
 20
182.516
 30
0
 10
66.526
 20
182.525
 30
0
 10
66.546
 20
182.533
 30
0
 10
66.569
 20
182.542
 30
0
 10
66.592
 20
182.552
 30
0
 10
66.6151
 20
182.561
 30
0
 10
66.6409
 20
182.572
 30
0
 10
66.6666
 20
182.582
 30
0
 10
66.6924
 20
182.593
 30
0
 10
66.7476
 20
182.616
 30
0
 10
66.8061
 20
182.64
 30
0
 10
66.8678
 20
182.665
 30
0
 10
66.9933
 20
182.717
 30
0
 10
67.1305
 20
182.773
 30
0
 10
67.269
 20
182.83
 30
0
  0
ARC
  5
A64
330
A02
100
AcDbEntity
  8
View001
100
AcDbCircle
 10
70.181
 20
183.66
 30
0
 40
4.023
100
AcDbArc
 50
90
 51
-162.5
  0
ARC
  5
A65
330
A02
100
AcDbEntity
  8
View001
100
AcDbCircle
 10
230.096
 20
183.919
 30
0
 40
3.746
100
AcDbArc
 50
-23.7
 51
90
  0
ARC
  5
A66
330
A02
100
AcDbEntity
  8
View001
100
AcDbCircle
 10
111.98
 20
179.536
 30
0
 40
8.176
100
AcDbArc
 50
49.3
 51
90
  0
ARC
  5
A67
330
A02
100
AcDbEntity
  8
View001
100
AcDbCircle
 10
188.362
 20
178.471
 30
0
 40
9.206
100
AcDbArc
 50
90
 51
128.3
  0
ARC
  5
A68
330
A02
100
AcDbEntity
  8
View001
100
AcDbCircle
 10
134.704
 20
181.362
 30
0
 40
9.206
100
AcDbArc
 50
-128.3
 51
-90
  0
ARC
  5
A69
330
A02
100
AcDbEntity
  8
View001
100
AcDbCircle
 10
165.09
 20
181.63
 30
0
 40
9.507
100
AcDbArc
 50
-90
 51
-52.3
  0
SPLINE
  5
A6A
330
A02
100
AcDbEntity
  8
View001
100
AcDbSpline
210
0
220
0
230
1
 70
8
 71
3
 72
35
 73
31
 74
0
 40
0
 40
0
 40
0
 40
0
 40
0.1122
 40
0.1122
 40
0.1122
 40
0.224399
 40
0.224399
 40
0.224399
 40
0.336599
 40
0.336599
 40
0.336599
 40
0.448799
 40
0.448799
 40
0.448799
 40
0.560999
 40
0.560999
 40
0.560999
 40
0.673198
 40
0.673198
 40
0.673198
 40
0.785398
 40
0.785398
 40
0.785398
 40
0.897598
 40
0.897598
 40
0.897598
 40
1.122
 40
1.122
 40
1.122
 40
1.5708
 40
1.5708
 40
1.5708
 40
1.5708
 10
205.04
 20
115.774
 30
0
 10
205.038
 20
115.775
 30
0
 10
205.036
 20
115.776
 30
0
 10
205.034
 20
115.777
 30
0
 10
205.029
 20
115.779
 30
0
 10
205.023
 20
115.781
 30
0
 10
205.017
 20
115.784
 30
0
 10
205.008
 20
115.788
 30
0
 10
204.998
 20
115.792
 30
0
 10
204.989
 20
115.796
 30
0
 10
204.975
 20
115.802
 30
0
 10
204.962
 20
115.807
 30
0
 10
204.949
 20
115.813
 30
0
 10
204.933
 20
115.82
 30
0
 10
204.916
 20
115.827
 30
0
 10
204.899
 20
115.834
 30
0
 10
204.879
 20
115.843
 30
0
 10
204.86
 20
115.851
 30
0
 10
204.84
 20
115.86
 30
0
 10
204.817
 20
115.87
 30
0
 10
204.794
 20
115.879
 30
0
 10
204.771
 20
115.889
 30
0
 10
204.745
 20
115.9
 30
0
 10
204.72
 20
115.911
 30
0
 10
204.694
 20
115.922
 30
0
 10
204.639
 20
115.946
 30
0
 10
204.581
 20
115.97
 30
0
 10
204.52
 20
115.997
 30
0
 10
204.395
 20
116.05
 30
0
 10
204.258
 20
116.108
 30
0
 10
204.121
 20
116.167
 30
0
  0
SPLINE
  5
A6B
330
A02
100
AcDbEntity
  8
View001
100
AcDbSpline
210
0
220
0
230
1
 70
8
 71
3
 72
11
 73
7
 74
0
 40
0
 40
0
 40
0
 40
0
 40
0.785405
 40
0.785405
 40
0.785405
 40
1.57081
 40
1.57081
 40
1.57081
 40
1.57081
 10
182.656
 20
185.696
 30
0
 10
182.663
 20
185.703
 30
0
 10
182.738
 20
185.625
 30
0
 10
182.861
 20
185.484
 30
0
 10
182.982
 20
185.345
 30
0
 10
183.15
 20
185.146
 30
0
 10
183.318
 20
184.944
 30
0
  0
SPLINE
  5
A6C
330
A02
100
AcDbEntity
  8
View001
100
AcDbSpline
210
0
220
0
230
1
 70
8
 71
3
 72
35
 73
31
 74
0
 40
0
 40
0
 40
0
 40
0
 40
0.1122
 40
0.1122
 40
0.1122
 40
0.224399
 40
0.224399
 40
0.224399
 40
0.336599
 40
0.336599
 40
0.336599
 40
0.448799
 40
0.448799
 40
0.448799
 40
0.560999
 40
0.560999
 40
0.560999
 40
0.673198
 40
0.673198
 40
0.673198
 40
0.785398
 40
0.785398
 40
0.785398
 40
0.897598
 40
0.897598
 40
0.897598
 40
1.122
 40
1.122
 40
1.122
 40
1.5708
 40
1.5708
 40
1.5708
 40
1.5708
 10
188.362
 20
187.678
 30
0
 10
188.362
 20
187.675
 30
0
 10
188.362
 20
187.673
 30
0
 10
188.362
 20
187.671
 30
0
 10
188.362
 20
187.665
 30
0
 10
188.362
 20
187.659
 30
0
 10
188.362
 20
187.652
 30
0
 10
188.362
 20
187.642
 30
0
 10
188.362
 20
187.632
 30
0
 10
188.362
 20
187.621
 30
0
 10
188.362
 20
187.607
 30
0
 10
188.362
 20
187.593
 30
0
 10
188.362
 20
187.578
 30
0
 10
188.362
 20
187.56
 30
0
 10
188.362
 20
187.542
 30
0
 10
188.362
 20
187.524
 30
0
 10
188.362
 20
187.503
 30
0
 10
188.362
 20
187.481
 30
0
 10
188.362
 20
187.459
 30
0
 10
188.362
 20
187.434
 30
0
 10
188.362
 20
187.41
 30
0
 10
188.362
 20
187.385
 30
0
 10
188.362
 20
187.357
 30
0
 10
188.362
 20
187.329
 30
0
 10
188.362
 20
187.301
 30
0
 10
188.362
 20
187.241
 30
0
 10
188.362
 20
187.178
 30
0
 10
188.362
 20
187.111
 30
0
 10
188.362
 20
186.976
 30
0
 10
188.362
 20
186.827
 30
0
 10
188.362
 20
186.678
 30
0
  0
SPLINE
  5
A6D
330
A02
100
AcDbEntity
  8
View001
100
AcDbSpline
210
0
220
0
230
1
 70
8
 71
3
 72
11
 73
7
 74
0
 40
0
 40
0
 40
0
 40
0
 40
0.785908
 40
0.785908
 40
0.785908
 40
1.57182
 40
1.57182
 40
1.57182
 40
1.57182
 10
183.318
 20
184.944
 30
0
 10
183.141
 20
185.138
 30
0
 10
182.965
 20
185.33
 30
0
 10
182.842
 20
185.468
 30
0
 10
182.718
 20
185.607
 30
0
 10
182.649
 20
185.69
 30
0
 10
182.656
 20
185.696
 30
0
  0
SPLINE
  5
A6E
330
A02
100
AcDbEntity
  8
View001
100
AcDbSpline
210
0
220
0
230
1
 70
8
 71
3
 72
35
 73
31
 74
0
 40
0
 40
0
 40
0
 40
0
 40
0.1122
 40
0.1122
 40
0.1122
 40
0.224399
 40
0.224399
 40
0.224399
 40
0.336599
 40
0.336599
 40
0.336599
 40
0.448799
 40
0.448799
 40
0.448799
 40
0.560999
 40
0.560999
 40
0.560999
 40
0.673198
 40
0.673198
 40
0.673198
 40
0.785398
 40
0.785398
 40
0.785398
 40
0.897598
 40
0.897598
 40
0.897598
 40
1.122
 40
1.122
 40
1.122
 40
1.5708
 40
1.5708
 40
1.5708
 40
1.5708
 10
230.096
 20
187.666
 30
0
 10
230.096
 20
187.663
 30
0
 10
230.096
 20
187.661
 30
0
 10
230.096
 20
187.659
 30
0
 10
230.096
 20
187.653
 30
0
 10
230.096
 20
187.647
 30
0
 10
230.096
 20
187.64
 30
0
 10
230.096
 20
187.63
 30
0
 10
230.096
 20
187.62
 30
0
 10
230.096
 20
187.609
 30
0
 10
230.096
 20
187.595
 30
0
 10
230.096
 20
187.581
 30
0
 10
230.096
 20
187.566
 30
0
 10
230.096
 20
187.548
 30
0
 10
230.096
 20
187.53
 30
0
 10
230.096
 20
187.512
 30
0
 10
230.096
 20
187.491
 30
0
 10
230.096
 20
187.469
 30
0
 10
230.096
 20
187.447
 30
0
 10
230.096
 20
187.422
 30
0
 10
230.096
 20
187.398
 30
0
 10
230.096
 20
187.373
 30
0
 10
230.096
 20
187.345
 30
0
 10
230.096
 20
187.317
 30
0
 10
230.096
 20
187.289
 30
0
 10
230.096
 20
187.229
 30
0
 10
230.096
 20
187.166
 30
0
 10
230.096
 20
187.099
 30
0
 10
230.096
 20
186.964
 30
0
 10
230.096
 20
186.815
 30
0
 10
230.096
 20
186.666
 30
0
  0
SPLINE
  5
A6F
330
A02
100
AcDbEntity
  8
View001
100
AcDbSpline
210
0
220
0
230
1
 70
8
 71
3
 72
35
 73
31
 74
0
 40
3.14159
 40
3.14159
 40
3.14159
 40
3.14159
 40
3.25379
 40
3.25379
 40
3.25379
 40
3.36599
 40
3.36599
 40
3.36599
 40
3.47819
 40
3.47819
 40
3.47819
 40
3.59039
 40
3.59039
 40
3.59039
 40
3.70259
 40
3.70259
 40
3.70259
 40
3.81479
 40
3.81479
 40
3.81479
 40
3.92699
 40
3.92699
 40
3.92699
 40
4.03919
 40
4.03919
 40
4.03919
 40
4.26359
 40
4.26359
 40
4.26359
 40
4.71239
 40
4.71239
 40
4.71239
 40
4.71239
 10
165.09
 20
172.123
 30
0
 10
165.09
 20
172.121
 30
0
 10
165.09
 20
172.119
 30
0
 10
165.09
 20
172.117
 30
0
 10
165.09
 20
172.111
 30
0
 10
165.09
 20
172.105
 30
0
 10
165.09
 20
172.098
 30
0
 10
165.09
 20
172.088
 30
0
 10
165.09
 20
172.078
 30
0
 10
165.09
 20
172.067
 30
0
 10
165.09
 20
172.053
 30
0
 10
165.09
 20
172.039
 30
0
 10
165.09
 20
172.024
 30
0
 10
165.09
 20
172.006
 30
0
 10
165.09
 20
171.988
 30
0
 10
165.09
 20
171.97
 30
0
 10
165.09
 20
171.949
 30
0
 10
165.09
 20
171.927
 30
0
 10
165.09
 20
171.905
 30
0
 10
165.09
 20
171.88
 30
0
 10
165.09
 20
171.856
 30
0
 10
165.09
 20
171.831
 30
0
 10
165.09
 20
171.803
 30
0
 10
165.09
 20
171.775
 30
0
 10
165.09
 20
171.747
 30
0
 10
165.09
 20
171.687
 30
0
 10
165.09
 20
171.624
 30
0
 10
165.09
 20
171.557
 30
0
 10
165.09
 20
171.422
 30
0
 10
165.09
 20
171.273
 30
0
 10
165.09
 20
171.124
 30
0
  0
SPLINE
  5
A70
330
A02
100
AcDbEntity
  8
View001
100
AcDbSpline
210
0
220
0
230
1
 70
8
 71
3
 72
35
 73
31
 74
0
 40
0
 40
0
 40
0
 40
0
 40
0.1122
 40
0.1122
 40
0.1122
 40
0.224399
 40
0.224399
 40
0.224399
 40
0.336599
 40
0.336599
 40
0.336599
 40
0.448799
 40
0.448799
 40
0.448799
 40
0.560999
 40
0.560999
 40
0.560999
 40
0.673198
 40
0.673198
 40
0.673198
 40
0.785398
 40
0.785398
 40
0.785398
 40
0.897598
 40
0.897598
 40
0.897598
 40
1.122
 40
1.122
 40
1.122
 40
1.5708
 40
1.5708
 40
1.5708
 40
1.5708
 10
233.526
 20
182.414
 30
0
 10
233.524
 20
182.415
 30
0
 10
233.522
 20
182.415
 30
0
 10
233.52
 20
182.416
 30
0
 10
233.515
 20
182.419
 30
0
 10
233.509
 20
182.421
 30
0
 10
233.503
 20
182.424
 30
0
 10
233.494
 20
182.428
 30
0
 10
233.484
 20
182.432
 30
0
 10
233.475
 20
182.436
 30
0
 10
233.462
 20
182.442
 30
0
 10
233.448
 20
182.448
 30
0
 10
233.435
 20
182.454
 30
0
 10
233.419
 20
182.461
 30
0
 10
233.402
 20
182.468
 30
0
 10
233.386
 20
182.475
 30
0
 10
233.366
 20
182.484
 30
0
 10
233.346
 20
182.493
 30
0
 10
233.326
 20
182.501
 30
0
 10
233.303
 20
182.512
 30
0
 10
233.281
 20
182.522
 30
0
 10
233.258
 20
182.532
 30
0
 10
233.232
 20
182.543
 30
0
 10
233.207
 20
182.554
 30
0
 10
233.181
 20
182.565
 30
0
 10
233.127
 20
182.589
 30
0
 10
233.069
 20
182.615
 30
0
 10
233.008
 20
182.641
 30
0
 10
232.883
 20
182.696
 30
0
 10
232.748
 20
182.756
 30
0
 10
232.61
 20
182.816
 30
0
  0
SPLINE
  5
A71
330
A02
100
AcDbEntity
  8
View001
100
AcDbSpline
210
0
220
0
230
1
 70
8
 71
3
 72
35
 73
31
 74
0
 40
0
 40
0
 40
0
 40
0
 40
0.1122
 40
0.1122
 40
0.1122
 40
0.224399
 40
0.224399
 40
0.224399
 40
0.336599
 40
0.336599
 40
0.336599
 40
0.448799
 40
0.448799
 40
0.448799
 40
0.560999
 40
0.560999
 40
0.560999
 40
0.673198
 40
0.673198
 40
0.673198
 40
0.785398
 40
0.785398
 40
0.785398
 40
0.897598
 40
0.897598
 40
0.897598
 40
1.122
 40
1.122
 40
1.122
 40
1.5708
 40
1.5708
 40
1.5708
 40
1.5708
 10
134.704
 20
172.155
 30
0
 10
134.704
 20
172.153
 30
0
 10
134.704
 20
172.151
 30
0
 10
134.704
 20
172.149
 30
0
 10
134.704
 20
172.143
 30
0
 10
134.704
 20
172.137
 30
0
 10
134.704
 20
172.13
 30
0
 10
134.704
 20
172.12
 30
0
 10
134.704
 20
172.11
 30
0
 10
134.704
 20
172.099
 30
0
 10
134.704
 20
172.085
 30
0
 10
134.704
 20
172.071
 30
0
 10
134.704
 20
172.056
 30
0
 10
134.704
 20
172.038
 30
0
 10
134.704
 20
172.02
 30
0
 10
134.704
 20
172.002
 30
0
 10
134.704
 20
171.981
 30
0
 10
134.704
 20
171.959
 30
0
 10
134.704
 20
171.937
 30
0
 10
134.704
 20
171.912
 30
0
 10
134.704
 20
171.888
 30
0
 10
134.704
 20
171.863
 30
0
 10
134.704
 20
171.835
 30
0
 10
134.704
 20
171.807
 30
0
 10
134.704
 20
171.779
 30
0
 10
134.704
 20
171.719
 30
0
 10
134.703
 20
171.656
 30
0
 10
134.703
 20
171.589
 30
0
 10
134.703
 20
171.454
 30
0
 10
134.703
 20
171.305
 30
0
 10
134.703
 20
171.156
 30
0
  0
SPLINE
  5
A72
330
A02
100
AcDbEntity
  8
View001
100
AcDbSpline
210
0
220
0
230
1
 70
8
 71
3
 72
35
 73
31
 74
0
 40
0
 40
0
 40
0
 40
0
 40
0.1122
 40
0.1122
 40
0.1122
 40
0.224399
 40
0.224399
 40
0.224399
 40
0.336599
 40
0.336599
 40
0.336599
 40
0.448799
 40
0.448799
 40
0.448799
 40
0.560999
 40
0.560999
 40
0.560999
 40
0.673198
 40
0.673198
 40
0.673198
 40
0.785398
 40
0.785398
 40
0.785398
 40
0.897598
 40
0.897598
 40
0.897598
 40
1.122
 40
1.122
 40
1.122
 40
1.5708
 40
1.5708
 40
1.5708
 40
1.5708
 10
117.312
 20
185.735
 30
0
 10
117.31
 20
185.733
 30
0
 10
117.309
 20
185.732
 30
0
 10
117.307
 20
185.73
 30
0
 10
117.303
 20
185.725
 30
0
 10
117.299
 20
185.721
 30
0
 10
117.295
 20
185.716
 30
0
 10
117.288
 20
185.708
 30
0
 10
117.282
 20
185.7
 30
0
 10
117.275
 20
185.692
 30
0
 10
117.266
 20
185.682
 30
0
 10
117.256
 20
185.671
 30
0
 10
117.247
 20
185.66
 30
0
 10
117.235
 20
185.646
 30
0
 10
117.223
 20
185.633
 30
0
 10
117.212
 20
185.619
 30
0
 10
117.198
 20
185.602
 30
0
 10
117.183
 20
185.586
 30
0
 10
117.169
 20
185.57
 30
0
 10
117.153
 20
185.551
 30
0
 10
117.137
 20
185.532
 30
0
 10
117.121
 20
185.513
 30
0
 10
117.102
 20
185.492
 30
0
 10
117.084
 20
185.471
 30
0
 10
117.066
 20
185.45
 30
0
 10
117.027
 20
185.404
 30
0
 10
116.986
 20
185.356
 30
0
 10
116.942
 20
185.306
 30
0
 10
116.854
 20
185.203
 30
0
 10
116.757
 20
185.09
 30
0
 10
116.659
 20
184.977
 30
0
  0
SPLINE
  5
A73
330
A02
100
AcDbEntity
  8
View001
100
AcDbSpline
210
0
220
0
230
1
 70
8
 71
3
 72
35
 73
31
 74
0
 40
0
 40
0
 40
0
 40
0
 40
0.1122
 40
0.1122
 40
0.1122
 40
0.224399
 40
0.224399
 40
0.224399
 40
0.336599
 40
0.336599
 40
0.336599
 40
0.448799
 40
0.448799
 40
0.448799
 40
0.560999
 40
0.560999
 40
0.560999
 40
0.673198
 40
0.673198
 40
0.673198
 40
0.785398
 40
0.785398
 40
0.785398
 40
0.897598
 40
0.897598
 40
0.897598
 40
1.122
 40
1.122
 40
1.122
 40
1.5708
 40
1.5708
 40
1.5708
 40
1.5708
 10
111.98
 20
187.713
 30
0
 10
111.98
 20
187.71
 30
0
 10
111.98
 20
187.708
 30
0
 10
111.98
 20
187.706
 30
0
 10
111.98
 20
187.7
 30
0
 10
111.98
 20
187.694
 30
0
 10
111.98
 20
187.687
 30
0
 10
111.98
 20
187.677
 30
0
 10
111.98
 20
187.667
 30
0
 10
111.98
 20
187.656
 30
0
 10
111.98
 20
187.642
 30
0
 10
111.98
 20
187.628
 30
0
 10
111.98
 20
187.613
 30
0
 10
111.98
 20
187.595
 30
0
 10
111.98
 20
187.577
 30
0
 10
111.98
 20
187.559
 30
0
 10
111.98
 20
187.538
 30
0
 10
111.98
 20
187.516
 30
0
 10
111.98
 20
187.494
 30
0
 10
111.98
 20
187.469
 30
0
 10
111.98
 20
187.445
 30
0
 10
111.98
 20
187.42
 30
0
 10
111.98
 20
187.392
 30
0
 10
111.98
 20
187.364
 30
0
 10
111.98
 20
187.336
 30
0
 10
111.98
 20
187.276
 30
0
 10
111.98
 20
187.213
 30
0
 10
111.98
 20
187.146
 30
0
 10
111.981
 20
187.011
 30
0
 10
111.981
 20
186.862
 30
0
 10
111.981
 20
186.713
 30
0
  0
SPLINE
  5
A74
330
A02
100
AcDbEntity
  8
View001
100
AcDbSpline
210
0
220
0
230
1
 70
8
 71
3
 72
35
 73
31
 74
0
 40
0
 40
0
 40
0
 40
0
 40
0.1122
 40
0.1122
 40
0.1122
 40
0.224399
 40
0.224399
 40
0.224399
 40
0.336599
 40
0.336599
 40
0.336599
 40
0.448799
 40
0.448799
 40
0.448799
 40
0.560999
 40
0.560999
 40
0.560999
 40
0.673198
 40
0.673198
 40
0.673198
 40
0.785398
 40
0.785398
 40
0.785398
 40
0.897598
 40
0.897598
 40
0.897598
 40
1.122
 40
1.122
 40
1.122
 40
1.5708
 40
1.5708
 40
1.5708
 40
1.5708
 10
70.181
 20
187.683
 30
0
 10
70.181
 20
187.68
 30
0
 10
70.181
 20
187.678
 30
0
 10
70.181
 20
187.676
 30
0
 10
70.181
 20
187.67
 30
0
 10
70.181
 20
187.664
 30
0
 10
70.181
 20
187.657
 30
0
 10
70.181
 20
187.647
 30
0
 10
70.181
 20
187.637
 30
0
 10
70.181
 20
187.626
 30
0
 10
70.181
 20
187.612
 30
0
 10
70.181
 20
187.598
 30
0
 10
70.181
 20
187.583
 30
0
 10
70.181
 20
187.565
 30
0
 10
70.181
 20
187.547
 30
0
 10
70.181
 20
187.529
 30
0
 10
70.181
 20
187.508
 30
0
 10
70.181
 20
187.486
 30
0
 10
70.181
 20
187.464
 30
0
 10
70.181
 20
187.439
 30
0
 10
70.181
 20
187.415
 30
0
 10
70.181
 20
187.39
 30
0
 10
70.181
 20
187.362
 30
0
 10
70.181
 20
187.334
 30
0
 10
70.181
 20
187.306
 30
0
 10
70.181
 20
187.246
 30
0
 10
70.181
 20
187.183
 30
0
 10
70.181
 20
187.116
 30
0
 10
70.181
 20
186.981
 30
0
 10
70.181
 20
186.832
 30
0
 10
70.181
 20
186.683
 30
0
  0
ENDSEC
  0
SECTION
  2
OBJECTS
  0
DICTIONARY
  5
F000
330
0
100
AcDbDictionary
  3
ACAD_GROUP
350
F001
  0
DICTIONARY
  5
F001
330
F000
100
AcDbDictionary
  0
ENDSEC
  0
EOF